<svg width="121" height="97" viewBox="0 0 121 97" fill="none" xmlns="http://www.w3.org/2000/svg">
<path d="M120.143 40.0619C120.12 39.6135 120.064 39.1632 119.992 38.7204C119.934 38.455 119.816 38.2233 119.638 38.0253C119.498 37.8029 119.312 37.6254 119.078 37.4946C118.848 37.3433 118.598 37.2592 118.329 37.2424C118.06 37.1789 117.791 37.1863 117.52 37.2667C117.357 37.3321 117.195 37.3975 117.032 37.4629C116.726 37.6385 116.479 37.8777 116.295 38.1785C116.224 38.3392 116.153 38.4999 116.083 38.6587C115.981 39.0156 115.975 39.3762 116.067 39.7368C116.07 39.7592 116.072 39.7835 116.076 39.8059C116.113 40.2787 116.102 40.7533 116.05 41.2241C115.951 41.751 115.799 42.2649 115.601 42.7619C115.375 43.2327 115.105 43.683 114.794 44.1034C114.733 44.0212 114.667 43.939 114.602 43.8587C114.522 43.7634 114.432 43.6737 114.339 43.5915C114.019 43.3112 113.677 43.0403 113.304 42.8329C112.917 42.6199 112.508 42.4461 112.097 42.2873C111.839 42.1882 111.574 42.1023 111.309 42.0238C111.068 41.9528 110.827 41.8912 110.578 41.8519C110.158 41.7865 109.741 41.7062 109.313 41.7473C109.048 41.7734 108.719 41.7921 108.448 41.8781C108.239 41.9435 108.034 42.0313 107.836 42.1228C107.785 42.1453 107.739 42.1714 107.692 42.2013C107.514 42.3172 107.333 42.448 107.174 42.59C107.156 42.6068 107.139 42.6236 107.12 42.6423C106.988 42.7843 106.864 42.9487 106.748 43.1057C106.584 43.328 106.476 43.6008 106.399 43.8624C106.39 43.8979 106.382 43.9334 106.375 43.9689C106.337 44.1688 106.298 44.38 106.287 44.5818C106.285 44.6173 106.285 44.6528 106.287 44.6864C106.3 44.8938 106.326 45.1105 106.362 45.3161C106.375 45.3908 106.397 45.4637 106.423 45.5365C106.509 45.7608 106.59 45.9981 106.711 46.2073C106.748 46.2727 106.793 46.3363 106.838 46.3979C106.982 46.5941 107.124 46.7978 107.288 46.979C107.4 47.1023 107.522 47.2163 107.649 47.3228C108.327 47.889 109.031 48.4215 109.784 48.8848C109.902 48.9577 110.02 49.025 110.137 49.0922C109.857 49.1819 109.569 49.2455 109.278 49.2922C108.377 49.3632 107.483 49.2698 106.584 49.1838C105.555 46.0541 103.774 43.3317 101.353 40.9551C98.837 38.4849 95.932 36.5754 92.7861 35.0152C89.4254 33.3485 85.9002 32.1303 82.2686 31.1998C82.108 31.1587 81.9473 31.1194 81.7866 31.0802C82.5283 30.557 83.255 30.0413 83.9107 29.4415C85.082 28.3672 84.671 27.3899 83.1747 26.8425C84.3198 26.0372 85.4818 25.2935 86.5466 24.4265C86.8754 24.1594 86.9352 23.5484 87.1183 23.0943C86.6438 22.8215 86.1692 22.545 85.691 22.2815C85.5976 22.2292 85.4855 22.2292 85.1922 22.1601C86.2309 21.3884 87.2135 20.7886 88.0299 19.9983C88.4596 19.5835 88.7286 18.8903 88.8388 18.227C89.0163 17.1638 88.4484 16.5883 87.4097 16.6126C87.264 16.6163 87.1108 16.579 86.7633 16.536C87.2285 16.1249 87.5797 15.8409 87.9029 15.5251C88.7174 14.731 89.4329 13.8435 89.4721 12.4945C89.4833 12.0984 89.3637 11.4818 89.1059 11.2538C88.8519 11.0277 88.3157 11.0894 87.9552 11.1641C87.561 11.2445 87.2266 11.4855 86.6905 11.7415C87.0697 11.2164 87.3817 10.8764 87.5984 10.4634C87.9869 9.72727 88.4427 9.00791 88.6352 8.17083C88.8351 7.30573 88.1009 6.63308 87.2565 6.79937C86.8586 6.87785 86.4943 7.05162 86.0105 7.21978C86.1356 6.86103 86.2346 6.61626 86.3075 6.35841C86.7876 4.66931 87.0977 2.9335 86.1431 0.966001C85.9712 0.610991 85.6219 0.321377 85.3529 0C85.1119 0.235428 84.7327 0.399853 84.6486 0.715625C83.6043 4.56842 81.3028 7.43092 79.0237 10.2729C75.7209 14.3947 71.7324 17.7131 67.333 20.5401C65.0278 22.0218 62.5488 23.3148 60.8207 25.5476C60.3948 26.0988 60.0305 26.9378 60.1202 27.6945C60.165 28.0682 60.2379 28.4475 60.3294 28.8287C60.137 28.8361 59.9427 28.8436 59.7484 28.8473C57.4488 28.8997 55.1547 29.0566 52.8663 29.2902C50.0342 29.5798 47.2208 29.9871 44.4299 30.5421C38.7452 31.6706 33.2249 33.3279 27.9344 35.7121C25.0388 37.0182 22.259 38.5335 19.6157 40.2955C19.3261 40.4898 19.0384 40.6879 18.7451 40.8766C18.6723 40.9233 18.5807 40.9551 18.4948 40.9625C16.9611 41.0896 15.4292 41.0653 13.903 40.8897C12.614 40.742 11.3268 40.5851 10.0416 40.402C8.96739 40.2488 7.90256 40.047 6.83026 39.8825C6.42675 39.8209 6.01576 39.8041 5.60851 39.7574C5.45159 39.7387 5.40675 39.8003 5.37686 39.9498C5.04247 41.6613 5.46653 43.2271 6.27543 44.7219C7.07125 46.1942 8.22761 47.362 9.46057 48.4626C9.57266 48.5635 9.68661 48.6606 9.81925 48.7746C9.69409 48.9465 9.57826 49.1035 9.46431 49.2623C7.76432 51.6278 6.5351 54.2137 5.83455 57.0445C5.7617 57.3378 5.74115 57.6424 5.70752 57.9451C5.67576 58.2347 5.53379 58.4327 5.27599 58.5673C4.63522 58.8999 3.93841 58.9952 3.236 59.0662C2.46073 59.1446 1.6892 59.0848 0.919534 58.9858C0.831732 58.9746 0.712173 59.0157 0.646789 59.0755C0.235803 59.4548 0.110639 59.963 0.0583314 60.4918C-0.104195 62.1174 0.0919574 63.7187 0.411406 65.3087C0.708436 66.7773 1.14931 68.1974 1.77887 69.5614C2.30381 70.6974 3.08468 71.5924 4.1383 72.265C5.89246 73.3843 7.74751 74.2606 9.80804 74.6324C10.6618 74.7875 11.5267 74.8249 12.3898 74.6642C12.556 74.6324 12.6812 74.6567 12.8157 74.7819C13.9721 75.8693 15.1621 76.9194 16.494 77.7901C18.379 79.0233 20.3835 80.0323 22.4963 80.8096C23.9964 81.3608 25.5208 81.8428 27.0414 82.3417C27.303 82.4277 27.4618 82.5697 27.5757 82.8144C28.067 83.872 28.3248 84.9931 28.4556 86.1422C28.6947 88.2405 28.605 90.3257 28.1399 92.3885C28.0035 92.992 27.8074 93.5843 27.6131 94.1748C27.3665 94.924 26.9275 95.5556 26.3465 96.0899C26.2139 96.2114 26.0906 96.3459 25.9374 96.4991C26.255 96.544 26.5482 96.6019 26.8453 96.6243C27.8204 96.6991 28.7956 96.8018 29.7726 96.8186C31.2746 96.8467 32.4907 96.1721 33.5275 95.137C35.0463 93.6198 36.2569 91.8653 37.3721 90.0436C38.3548 88.4367 39.229 86.7756 39.838 84.9856C39.8941 84.8193 39.9894 84.8137 40.1276 84.8268C41.1775 84.9221 42.2274 85.0473 43.281 85.0996C45.6834 85.2192 48.0877 85.3481 50.4938 85.3855C52.5487 85.4172 54.6093 85.3668 56.6642 85.2808C59.2795 85.1725 61.8893 84.9501 64.4916 84.6549C67.9831 84.2588 71.4541 83.7412 74.8933 83.0256C76.2477 82.7434 77.5908 82.7173 78.9172 83.1396C80.3314 83.5899 81.3383 84.5166 81.9753 85.8507C82.5376 87.0297 82.7543 88.2891 82.7898 89.5783C82.8365 91.273 82.5619 92.921 81.9099 94.4905C81.7138 94.9633 81.4373 95.4042 81.1776 95.9012C81.5513 95.9984 81.923 96.1236 82.3041 96.189C83.9667 96.4711 85.6125 96.4244 87.2266 95.8863C87.9813 95.634 88.5773 95.1351 89.1358 94.5989C92.9524 90.9292 96.3299 86.8914 99.2255 82.4538C101.734 78.6104 103.815 74.5521 105.312 70.206C106.248 67.4892 106.918 64.7089 107.305 61.8595C107.544 60.0938 107.587 58.3188 107.578 56.5437C107.578 56.3681 107.574 56.1943 107.57 56.0205C107.57 56.0205 107.404 54.5164 107.307 53.3187C107.647 53.3468 107.989 53.371 108.329 53.3785C108.62 53.3841 108.914 53.3785 109.205 53.3542C109.67 53.3169 110.141 53.2645 110.599 53.1693C110.884 53.1095 111.168 53.031 111.441 52.9245C111.861 52.7619 112.287 52.5994 112.669 52.3546C112.923 52.192 113.165 52.0052 113.399 51.8165C113.511 51.7249 113.619 51.6259 113.718 51.5213C113.933 51.2933 114.127 51.0448 114.309 50.7907C114.41 50.6506 114.499 50.5029 114.581 50.3497C114.8 49.9368 114.983 49.5014 115.136 49.0605C115.239 49.0026 115.342 48.9428 115.441 48.8792C115.818 48.6419 116.175 48.371 116.522 48.0945C116.743 47.9188 116.954 47.7301 117.154 47.5302C117.35 47.334 117.537 47.1266 117.712 46.9117C117.995 46.5642 118.275 46.2167 118.519 45.843C118.923 45.2301 119.231 44.5612 119.504 43.8811C119.713 43.356 119.87 42.8067 119.965 42.2499C120.089 41.5249 120.182 40.8018 120.145 40.0657L120.143 40.0619ZM83.1111 26.8163C83.0887 26.8032 83.0756 26.7621 83.1111 26.8163Z" fill="#574429"/>
<path d="M43.7174 50.006C43.4317 51.7747 43.1478 53.5078 42.9143 55.2429C42.8023 55.8555 42.7406 56.4326 42.6286 57.0451C42.5707 57.4542 42.509 58.1004 42.2961 58.472C41.9768 59.0809 39.5451 59.1462 38.7663 59.305C37.9371 59.4637 36.8445 59.8559 36.4953 58.9987C36.146 58.1078 36.1647 56.9835 36.075 56.0609C36.0321 55.4465 35.8883 54.7965 35.793 54.1821C35.7445 53.943 35.6978 53.6685 35.6492 53.3958C35.554 52.8486 35.356 52.3014 35.313 51.7541C35.3168 51.5506 35.2664 51.446 35.2215 51.0034C35.173 50.8315 33.9777 51.1546 33.9758 51.3246C33.8675 51.6645 33.8619 52.0735 33.7517 52.4807C33.6434 52.7851 33.4043 54.9627 33.3502 55.0655C33.1821 55.9488 32.9617 56.7986 32.8963 57.7175C32.8833 58.5355 32.5714 58.7017 31.533 58.9576C30.7019 59.1836 29.7662 59.544 28.838 59.3946C27.807 59.2079 27.9228 58.3917 27.7771 57.7418C27.1963 55.142 26.7705 52.546 26.3951 49.95C26.1598 48.3793 25.7694 46.8385 25.5864 45.3015C25.1905 41.9902 25.1363 42.3973 25.0168 41.8837C24.7124 40.5614 24.5573 40.3429 24.6862 39.8629C25.0672 38.4379 27.073 37.9729 28.1171 37.7301C29.0808 37.506 29.4113 37.6404 29.6018 37.8123C29.9324 38.1111 29.9343 38.5836 29.966 39.5361C30.0015 40.5932 30.1939 41.6185 30.2798 42.6774C30.3171 43.5646 30.3022 44.5862 30.5487 45.4415C31.3761 45.4191 31.688 45.3556 31.6973 44.7094C31.7571 44.1996 31.8168 43.6878 31.8766 43.178C31.998 41.9528 32.1362 39.6706 32.5023 39.4726C33.2829 39.1775 34.3195 38.9889 35.201 38.8656C35.7202 38.7704 36.2375 38.7442 36.7549 38.6844C37.3245 38.5911 37.9464 38.5313 38.0977 38.8077C38.4507 39.3923 38.2284 40.3784 38.3218 41.0265C38.4133 41.8127 38.4002 42.6289 38.5441 43.4152C38.5907 43.7233 38.4227 44.6403 38.7831 44.6795C39.2482 44.7206 39.0931 44.6497 39.5078 44.6571C39.8701 44.6627 40.337 41.1254 40.2623 39.284C40.266 38.9777 40.1708 38.4995 40.1782 38.0214C40.1857 37.5433 40.2959 37.1026 40.6097 36.8355C41.0803 36.4339 42.5819 36.4227 43.2542 36.3648C43.9789 36.2733 45.1723 36.0193 45.6821 36.5722C46.1397 37.0895 45.7569 38.4473 45.6448 39.0262C44.866 42.6606 44.2926 46.3343 43.7193 50.006H43.7174Z" fill="#302314"/>
<path d="M47.9527 43.2613C47.977 41.6944 47.667 41.6552 47.8967 40.1256C48.0144 39.2067 49.7214 39.0965 51.068 39.0498C52.0503 39.0312 53.2381 39.1843 53.537 39.9052C53.7854 40.6242 53.4044 41.7784 53.2904 42.561C53.2288 43.1736 53.2251 43.4126 53.2232 43.5826C53.2195 43.7861 53.2176 43.9225 53.311 44.5724C53.4081 45.0169 53.1915 45.6949 54.0169 45.8107C54.3793 45.8499 55.5708 45.5959 55.935 45.4988C56.6111 45.3045 56.7736 44.7611 56.781 44.2157C56.7866 43.8403 56.6895 43.4649 56.6933 43.1586C56.6559 42.1688 56.8259 41.2182 56.7381 40.2283C56.6914 39.8529 56.5476 39.203 56.5551 38.624C56.5625 38.0787 56.725 37.6043 57.1938 37.3727C57.9763 36.9749 59.9915 36.973 60.9739 37.0216C62.6267 37.115 62.8789 37.5949 62.9162 38.5512C62.8957 39.8454 63.1366 41.0762 63.0133 42.3705C62.9517 43.0858 62.9405 43.7675 62.9293 44.4828C62.9088 45.8798 62.9386 47.3122 62.9162 48.7092C62.8845 50.8215 62.6977 52.9319 62.666 55.0106C62.6548 55.7595 62.5408 56.4749 62.5296 57.1902C62.5221 57.6328 62.722 58.1819 62.199 58.5143C61.3119 59.0466 59.1903 59.1848 58.051 59.3043C56.0825 59.5807 56.4094 58.462 56.4225 57.5749C56.4374 56.6205 56.4 55.6662 56.3627 54.7454C56.3664 54.4727 56.4262 53.9965 56.4337 53.5203C56.443 52.9077 56.3496 52.2914 55.8342 52.1139C55.4737 51.972 54.5399 52.1625 54.1776 52.226C53.3988 52.4183 53.3988 52.4874 53.2867 52.9954C53.1765 53.4717 53.1167 53.9816 53.1093 54.4933C53.1037 54.9023 53.1485 55.2777 53.1429 55.6867C53.1896 56.0285 53.2363 56.4039 53.2307 56.7793C53.2213 57.3582 53.0588 57.9017 52.1755 58.1949C51.1352 58.5535 49.4263 58.7664 48.2347 58.8841C46.4231 58.9924 46.8546 57.8401 46.9181 57.0912C47.0955 55.6288 47.1683 54.1982 47.3458 52.734C47.6521 49.5683 47.8556 46.4363 47.9546 43.2669L47.9527 43.2613Z" fill="#302314"/>
<path d="M65.2723 40.035C65.2294 39.4897 65.0295 38.9406 65.2966 38.399C65.5114 37.891 66.391 37.8013 67.1157 37.8125C68.1503 37.7602 69.2373 37.7416 70.3243 37.622C71.6204 37.4371 72.9147 37.3213 74.1585 37.1346C75.04 37.0113 76.183 36.6546 76.6387 37.241C77.0963 37.7248 77.1374 38.4755 77.1804 39.0564C77.1766 39.329 77.2196 39.9099 77.2102 40.5225C77.199 41.2378 77.1374 41.9531 76.9768 42.2239C76.6051 42.7972 75.7255 42.8869 74.8962 43.0793C73.9624 43.2361 72.4104 43.3482 71.3757 43.4005C70.2906 43.3837 69.8237 43.4789 69.7602 44.2615C69.7546 44.6014 69.7546 44.6705 69.8013 44.9786C69.848 45.2513 69.7957 45.3876 69.947 45.595C70.2496 46.0768 71.8557 45.862 72.5281 45.8396C73.4077 45.75 74.9635 45.5016 75.7908 45.5483C76.7713 45.6659 76.6518 46.7211 76.6966 47.2329C76.7415 47.6419 76.7359 48.0509 76.7284 48.4935C76.7751 48.8353 76.8722 49.2107 76.7639 49.5506C76.2297 50.7011 73.1257 50.7571 71.6764 50.9046C70.4849 51.0223 70.4289 51.295 70.3672 52.0439C70.3037 52.86 70.3 53.0991 70.4419 53.8854C70.5876 54.5689 71.1012 54.7482 72.1882 54.7295C73.1705 54.7445 74.2575 54.625 75.1913 54.5017C76.0728 54.3448 76.8573 53.8107 77.4661 54.5708C77.8732 55.0545 77.8097 55.7698 77.9031 56.3843C77.9984 56.9651 78.1422 57.615 77.6174 58.1174C76.8815 58.8906 75.0139 59.2361 73.7701 59.5238C72.162 59.8058 70.5054 59.9515 68.8507 59.9272C67.9729 59.8805 66.3705 59.7535 65.9129 59.2343C65.6589 58.9242 65.7168 58.4816 65.6701 58.1398C65.6272 57.5945 65.5842 57.0473 65.5917 56.5019C65.6141 55.0713 65.4796 53.7061 65.4497 52.24C65.4143 51.1493 65.3788 50.0567 65.3956 48.9679C65.4049 48.3198 65.4143 47.7072 65.5282 47.061C65.644 46.2449 65.7093 45.3596 65.6701 44.5061C65.5898 42.9709 65.4572 41.503 65.2723 40.035Z" fill="#302314"/>
<path d="M79.2142 41.7116C79.2385 40.1091 80.3834 39.6833 82.1464 39.3023C82.8729 39.1436 83.6499 39.0857 84.3241 38.9269C85.2056 38.7364 86.089 38.5441 86.4924 39.1977C87.0957 40.3314 87.0732 41.7975 87.5215 42.9293C88.0201 44.1638 88.3619 45.5328 88.7037 46.7654C88.8008 47.1427 88.9409 48.1661 89.3518 48.4108C90.2762 48.8347 90.3958 47.7104 90.506 47.2696C90.7898 45.6037 90.2445 43.9938 90.2706 42.3578C90.2333 41.437 89.9961 40.0008 90.0129 38.8765C90.0241 38.1612 90.1362 37.5486 90.5545 37.317C91.7479 37.0967 93.3074 36.5401 94.4392 36.8987C94.8893 37.9614 94.9696 39.3957 94.9491 40.7236C94.9397 41.3362 94.88 41.9151 94.8706 42.4269C94.809 43.1422 94.7978 43.8575 94.7866 44.5728C94.7642 46.0389 94.794 47.4359 94.7716 48.902C94.7567 49.8899 94.7399 50.947 94.7249 52.0022C94.6932 54.0473 94.7137 56.126 94.9416 58.1075C95.0723 59.7118 93.1561 59.9546 91.4435 60.2702C90.7693 60.4309 90.2501 60.4906 89.785 60.4832C88.9577 60.4701 88.3937 60.1545 87.8913 59.1926C86.7389 56.789 86.1077 54.0529 84.7985 51.7146C84.6472 51.5073 84.5986 51.3019 84.4978 51.0628C83.3604 51.0124 83.1493 51.2813 83.1419 51.8267C83.1381 52.133 83.2353 52.5102 83.2278 52.9529C83.2633 54.0099 83.2988 55.1006 83.3865 56.126C83.4239 57.1158 83.6107 58.4138 83.4426 59.2972C83.2745 60.2142 80.9437 60.3506 79.7559 60.2983C79.4066 59.5083 79.317 58.5875 79.33 57.7023C79.345 56.6807 79.5168 55.5918 79.4794 54.6375C79.5205 51.9798 79.2497 49.3857 79.2889 46.7617C79.3151 45.0584 79.1844 43.385 79.2105 41.7153L79.2142 41.7116Z" fill="#302314"/>
<path d="M29.3189 64.2732C29.3021 65.4274 29.162 66.5797 29.1023 67.7339C29.05 68.5463 28.9958 69.3849 28.8595 70.2234C28.8128 70.6156 28.5196 71.1367 28.0246 71.4187C27.3654 71.7493 26.1794 71.8371 25.3614 71.9547C24.7058 72.05 23.7253 72.0873 23.5554 72.558C23.4284 72.8456 23.4228 73.1594 23.419 73.475C23.4134 73.8691 23.4489 74.237 23.4022 74.603C23.3537 75.1017 23.3873 75.6004 23.4209 76.0729C23.4545 76.5715 23.0847 76.7508 22.3862 76.9226C21.8129 77.0721 20.8697 77.1878 20.2179 77.1262C19.4429 77.0104 19.6203 76.1457 19.5456 75.7255C19.3271 73.9643 19.3943 72.2069 19.2991 70.4214C19.1627 68.5818 18.9872 66.7422 18.9741 64.9063C18.9442 64.1443 18.7518 63.4066 18.6809 62.6707C18.5669 62.1179 19.2243 61.8135 20.005 61.5632C21.2358 61.1878 22.5469 61.0254 23.8561 60.9133C24.7152 60.8479 25.3259 60.9357 26.1831 61.0272C26.876 61.0907 27.8155 61.1038 28.4654 61.3503C29.2778 61.651 29.2647 62.5699 29.2965 63.0685C29.332 63.4626 29.3245 63.8828 29.3189 64.2769V64.2732ZM25.0177 67.803C25.0252 67.3043 25.0738 66.8337 24.9991 66.3593C24.9244 65.9129 24.3921 65.982 23.6133 66.1016C22.8345 66.2473 22.8326 66.4303 22.8662 66.8243C22.9017 67.2184 22.8942 67.6125 22.8886 68.0066C22.883 68.3483 22.7971 68.6882 22.954 69.03C23.1128 69.3214 23.7272 69.1738 24.2203 69.101C25.2848 68.9591 25.0103 68.2213 25.0159 67.8011L25.0177 67.803Z" fill="#302314"/>
<path d="M30.893 62.8814C31.0779 61.4676 32.6337 61.2809 34.2697 61.1744C35.0467 61.1333 35.62 61.0119 35.9394 61.5405C36.0589 61.7515 36.0963 62.0149 36.0907 62.3043C36.0851 62.7246 35.9954 63.1429 35.9917 63.4847C35.9599 65.5839 35.9282 67.6831 35.8964 69.7823C35.8647 71.8554 35.9562 73.9304 35.9263 75.9493C35.8647 77.2603 34.7945 77.8225 33.0371 77.8468C32.5067 77.8393 31.4029 77.8468 31.0406 77.5274C30.7997 77.3145 30.7231 76.8663 30.7306 76.3938C30.7362 76.052 30.781 75.7382 30.7847 75.529C30.7511 75.1088 30.7567 74.7148 30.7623 74.3207C30.7754 73.5083 30.8277 72.694 30.8408 71.8816C30.8688 70.0718 30.6503 68.2565 30.6783 66.4467C30.6839 66.105 30.7287 65.7651 30.7343 65.4233C30.8295 64.5847 30.7604 63.7181 30.8949 62.8796L30.893 62.8814Z" fill="#302314"/>
<path d="M48.9828 71.527C49.0557 72.0537 49.1715 72.6065 49.2032 73.1574C49.2312 74.0502 49.461 75.0512 49.4871 75.944C49.4778 76.5211 49.5506 77.1262 49.5824 77.7033C49.616 78.1235 49.1248 78.1945 48.5533 78.2393C48.0191 78.3887 47.203 78.3233 46.5904 78.3924C46.1814 78.4391 45.4848 78.5586 44.9133 78.5512C44.3418 78.5437 43.8525 78.4036 43.7367 77.9815C43.619 77.6118 44.1587 77.1486 43.4659 76.9805C43.3837 76.9805 43.2623 76.9768 43.0979 77.001C42.5227 77.1766 41.7831 77.5576 41.1294 77.4698C40.7634 77.4119 40.1545 77.1392 39.8296 77.0048C39.5046 76.8423 39.1404 76.6798 38.8976 76.465C38.2925 75.957 38.3429 75.3799 38.2701 74.7767C38.0908 73.1201 37.9937 71.4392 38.0198 69.7602C38.0329 68.9198 38.0871 68.0551 38.1394 67.2165C38.1898 66.5871 38.1991 65.9577 38.2085 65.3283C38.2178 64.6989 38.2271 64.0695 38.2776 63.4401C38.371 62.7323 38.3373 62.1552 39.3234 61.7761C39.8576 61.5744 40.3506 61.3447 40.8456 61.1168C41.4619 60.8908 42.0763 60.7676 42.7319 60.5939C43.1428 60.4687 43.6358 60.2932 44.0859 60.2465C44.4538 60.226 44.861 60.2839 45.2289 60.3156C45.636 60.3735 46.0432 60.4594 46.4933 60.493C46.9004 60.5248 47.3505 60.5322 47.7166 60.6163C48.5309 60.7862 48.6878 61.1822 48.8035 61.6566C48.9175 62.2355 48.826 62.8108 48.8185 63.3617C48.8129 63.7035 48.8073 64.0434 48.8035 64.3852C48.7961 64.8577 48.783 65.7504 48.7344 66.2211C48.727 66.6674 48.7195 67.1922 48.1443 67.4201C47.569 67.6218 46.667 67.8179 46.0544 67.8608C45.6865 67.8814 45.4007 67.8515 45.1579 67.689C44.8348 67.4742 44.9581 67.3454 45.0029 67.0839C45.0926 66.561 45.1 66.01 44.9861 65.4833C44.8722 64.9567 44.5846 65.0575 43.6844 65.1229C42.9074 65.1901 42.0894 65.2816 41.9568 65.8569C41.7794 66.8243 41.6057 67.3995 41.5945 68.1877C41.5908 68.4772 41.6262 68.7909 41.6617 69.1588C41.7327 69.8947 41.841 70.7893 41.8709 71.5233C41.8634 72.0481 42.1436 72.4197 42.3808 72.9221C42.4984 73.2396 42.5787 73.3181 43.0699 73.3255C43.3557 73.3293 43.845 73.389 44.1326 73.3423C44.747 73.2471 45.1617 72.8063 45.1673 72.4403C45.1673 72.3357 45.1374 71.6783 45.016 71.6764C44.6929 71.4616 44.2801 71.6652 43.9122 71.7119C43.012 71.8296 42.9765 71.4878 42.8197 71.0134C42.7823 70.8285 42.7449 70.5129 42.7506 70.173C42.7562 69.805 42.8028 69.439 43.0494 69.2858C43.421 69.0281 44.4015 69.043 44.9338 68.9478C45.7108 68.8544 46.4485 68.7872 47.2254 68.6677C47.9631 68.5743 48.9044 68.352 49.6795 68.4958C50.4134 68.6378 50.4377 69.7154 50.4303 70.1337C50.5031 70.6866 49.7691 70.6754 49.3134 71.062C49.1061 71.217 49.0221 71.372 48.9791 71.5289L48.9828 71.527Z" fill="#302314"/>
<path d="M61.814 65.3622C61.8514 65.6256 61.9672 65.9935 61.9616 66.3876C61.956 66.8078 61.8271 67.172 61.4965 67.4036C61.0427 67.7117 60.7588 67.6015 60.1855 67.6986C59.3263 67.8163 57.9387 67.665 57.991 66.9833C58.0395 66.5127 58.1236 66.3297 58.0844 66.1709C58.0489 65.8291 58.0097 65.7246 57.4382 65.7414C57.0702 65.7619 56.2933 65.7768 56.0057 65.93C55.2642 66.2867 55.4267 66.3932 55.4211 66.7349C55.4155 67.129 55.2456 67.5455 56.2205 67.8761C57.1562 68.1786 58.1311 68.5353 59.106 68.8118C60.0827 69.1162 61.3845 69.372 62.195 69.9081C62.802 70.3115 62.5872 71.0417 62.5779 71.6188C62.604 72.59 62.3444 73.5313 61.9224 74.4688C61.5432 75.2495 60.9885 76.7641 60.3648 77.4626C59.825 78.0323 59.6588 78.2396 58.7567 78.4095C57.4867 78.6523 56.6276 78.77 56.015 78.7606C54.872 78.7438 54.5508 78.318 53.7851 77.6251C53.0997 77.0107 52.4964 76.3719 52.3041 75.5558C52.1117 74.7658 51.7587 73.8413 51.7699 73.0289C51.7438 72.0577 53.0978 71.6842 54.323 71.7028C54.7731 71.7103 55.1802 71.7682 55.5463 71.8784C56.3605 72.0745 56.0244 72.7263 56.1383 73.2511C56.2149 73.6452 56.2821 74.5921 56.9339 74.6276C57.5876 74.6369 58.5401 73.733 58.7922 73.3445C59.1695 72.7469 59.1788 72.0913 58.3272 71.7365C57.3934 71.3555 56.5398 71.0529 55.522 70.8008C54.7488 70.6047 53.279 70.5038 52.5487 70.205C51.7774 69.8782 51.91 69.2506 51.8371 68.6717C51.7288 67.7509 51.9062 66.8097 51.9212 65.8385C51.9361 64.8673 51.9156 63.5021 52.7056 62.6486C53.3723 61.8455 54.6012 61.5747 55.7498 61.2254C56.8162 60.9005 57.8397 60.837 58.9024 60.8015C59.3936 60.7828 59.9651 60.7118 60.4563 60.7193C60.9475 60.7268 61.3938 60.8127 61.6347 61.1302C61.7954 61.3169 61.8719 61.6064 61.8682 61.9202C61.8626 62.3143 61.773 62.7588 61.8103 63.0221C61.8813 63.7841 61.5843 64.5143 61.8159 65.3585L61.814 65.3622Z" fill="#302314"/>
<path d="M70.2607 66.5897C70.2701 66.0126 70.2383 65.4355 70.2458 64.8845C70.2551 64.229 69.9003 63.4614 70.1543 62.8096C70.4512 62.0532 71.6334 62.2549 72.655 62.2698C73.8802 62.2885 75.2305 62.1783 76.4183 61.9598C77.2382 61.8141 78.5101 61.4144 79.2403 61.7656C79.6867 61.9561 79.7632 62.3501 79.7558 62.7442C79.7502 63.1121 79.6624 63.4782 79.6587 63.7396C79.6512 64.2906 79.7109 65.6558 79.2552 66.0947C78.7566 66.6121 77.0421 66.5598 76.1419 66.6251C75.4882 66.6681 74.1006 66.5672 73.7681 66.9557C73.5179 67.2676 73.4226 68.1846 73.7868 68.4517C74.3116 68.8794 76.3231 68.2537 77.1 68.1865C78.4092 68.1006 78.7753 68.1323 78.9658 69.0549C79.0423 69.4228 79.1525 70.1606 79.1432 70.7638C79.1376 71.0794 79.0928 71.3409 79.0087 71.5221C78.6315 72.0936 77.0813 71.9647 76.2241 71.9778C75.6937 71.9703 74.9952 72.1944 74.7449 72.5063C74.5787 72.7398 74.7318 73.3467 74.7281 73.6082C74.7972 74.4225 74.913 74.8446 74.984 75.6327C75.0195 76.0006 74.9728 76.3667 75.0493 76.7104C75.0848 77.026 75.2025 77.3416 75.0755 77.6554C74.8215 78.2287 73.5515 78.4977 72.6513 78.5369C72.1601 78.5556 71.5457 78.7031 71.1404 78.5406C70.6118 78.3221 70.6567 78.1129 70.6641 77.6404C70.5988 76.5367 70.5801 75.1191 70.5558 74.0172C70.4998 72.2841 70.0777 70.493 70.1057 68.7356C70.1113 68.3153 70.1188 67.869 70.2066 67.4506C70.2514 67.163 70.257 66.8735 70.2607 66.5859V66.5897Z" fill="#302314"/>
<path d="M81.2974 63.5053C81.303 63.085 81.1107 62.3996 81.7681 62.1475C82.0968 61.9943 82.6272 62.0298 82.997 61.957C83.4882 61.886 83.9812 61.7628 84.5116 61.7441C85.3689 61.731 86.228 61.7702 86.34 62.3753C86.4894 63.2961 86.2298 64.2374 86.2168 65.1282C86.1962 66.4655 86.0543 67.7765 86.0337 69.0876L86.0225 69.8739C86.0543 70.5051 86.0487 70.8712 86.0431 71.2653C86.0375 71.6593 86.0319 72.0515 85.9815 72.6548C85.9348 73.0993 85.7144 74.1209 86.9788 74.1919C87.836 74.2311 87.7968 74.1526 88.5756 74.007C89.3133 73.8874 90.2172 73.4803 90.6599 74.0126C90.9811 74.4365 90.9979 76.0128 91.0726 76.4592C91.1455 77.0904 90.7327 77.3201 90.0324 77.6769C88.88 78.2371 88.4691 78.3884 87.0367 78.6032C86.0954 78.7732 84.9897 78.9394 83.9681 78.9244C83.5591 78.9188 83.152 78.8852 82.7448 78.8012C81.7681 78.6032 81.5701 78.1792 81.4562 77.6003C81.346 76.7318 81.3198 75.813 81.2526 74.9202C81.1835 74.0798 81.1966 73.2132 81.2096 72.3746C81.2171 71.8237 81.2265 71.2727 81.2358 70.6956C81.2731 68.2827 81.2675 65.894 81.3049 63.5071L81.2974 63.5053Z" fill="#302314"/>
<path d="M100.308 65.2084C99.6303 66.7735 99.0327 68.4432 98.5602 70.0363C98.1288 71.5248 97.8318 72.255 97.4826 73.7192C97.1763 75.0266 96.7486 76.3582 96.3601 77.6656C96.2742 77.9793 96.306 78.5564 95.8932 78.8123C95.5216 79.042 94.6662 78.9505 94.1769 78.8907C93.5643 78.8291 92.3802 78.8366 92.2663 78.3099C92.1878 78.0727 92.4381 77.7608 92.4829 77.5255C92.6529 77.0829 92.7406 76.6365 92.8714 76.1939C93.0451 75.514 93.0525 75.0415 93.1814 74.597C93.2281 74.1787 93.3962 73.8911 93.1982 73.469C92.763 72.5445 92.1654 71.5379 91.4837 70.6619C90.5611 69.5189 90.1297 68.3853 89.4947 67.1414C89.2967 66.7194 88.8597 65.8976 88.7439 65.4512C88.6262 65.1076 88.6767 64.4539 89.0483 64.1962C89.42 63.9123 90.1166 63.7405 90.6508 63.5649C91.2671 63.3389 91.8423 63.0849 92.58 62.9916C93.357 62.8982 93.2673 63.4211 93.3439 63.8171C93.4989 64.3176 93.6147 64.8181 93.7697 65.3186C93.9658 65.7949 93.9583 66.2917 94.2348 67.0051C94.3151 67.1377 94.7035 68.4301 94.8249 68.5104C94.9855 68.6449 95.3964 68.5198 95.684 68.4712C95.8558 67.8698 96.2387 66.9584 96.3695 66.3552C96.4161 66.0153 96.545 65.5969 96.5917 65.2047C96.7654 64.4726 96.982 63.7666 97.2771 63.0625C97.6152 62.28 97.2958 61.7776 98.5658 61.5871C99.4249 61.4956 99.918 61.3723 100.775 61.3835C101.877 61.4003 101.787 61.9494 101.535 62.4966C101.195 63.4099 100.65 64.2933 100.31 65.2066L100.308 65.2084Z" fill="#302314"/>
<path d="M41.0885 50.0138C40.8027 51.7825 40.5189 53.5157 40.2854 55.2507C40.1733 55.8633 40.1117 56.4404 39.9997 57.053C39.9418 57.462 39.8801 58.1082 39.6672 58.4798C39.3479 59.0887 36.9162 59.154 36.1374 59.3128C35.3082 59.4715 34.2156 59.8637 33.8664 59.0065C33.5171 58.1156 33.5358 56.9913 33.4461 56.0687C33.4032 55.4543 33.2594 54.8043 33.1641 54.1899C33.1156 53.9508 33.0689 53.6763 33.0203 53.4036C32.9251 52.8564 32.7271 52.3092 32.6841 51.762C32.6879 51.5584 32.6374 51.4538 32.5926 51.0112C32.5441 50.8393 31.3488 51.1624 31.3469 51.3324C31.2386 51.6723 31.233 52.0813 31.1228 52.4885C31.0145 52.7929 30.7754 54.9705 30.7213 55.0733C30.5532 55.9567 30.3328 56.8064 30.2674 57.7253C30.2543 58.5433 29.9425 58.7095 28.904 58.9654C28.073 59.1914 27.1373 59.5518 26.2091 59.4024C25.1781 59.2157 25.2939 58.3995 25.1482 57.7496C24.5674 55.1498 24.1416 52.5538 23.7662 49.9578C23.5309 48.3871 23.1405 46.8463 22.9575 45.3093C22.5616 41.998 22.5074 42.4051 22.3879 41.8915C22.0835 40.5692 21.9284 40.3507 22.0573 39.8707C22.4383 38.4457 24.4441 37.9807 25.4881 37.7379C26.4518 37.5138 26.7824 37.6483 26.9729 37.8201C27.3035 38.1189 27.3054 38.5914 27.3371 39.5439C27.3726 40.601 27.565 41.6263 27.6509 42.6853C27.6882 43.5724 27.6733 44.594 27.9198 45.4494C28.7472 45.4269 29.0591 45.3634 29.0684 44.7172C29.1282 44.2074 29.1879 43.6956 29.2477 43.1858C29.3691 41.9606 29.5073 39.6784 29.8734 39.4804C30.654 39.1853 31.6906 38.9967 32.5721 38.8734C33.0913 38.7782 33.6086 38.752 34.126 38.6923C34.6956 38.5989 35.3175 38.5391 35.4688 38.8155C35.8218 39.4001 35.5995 40.3862 35.6929 41.0343C35.7844 41.8205 35.7713 42.6367 35.9151 43.423C35.9618 43.7311 35.7938 44.6481 36.1542 44.6874C36.6192 44.7284 36.4642 44.6575 36.8788 44.6649C37.2412 44.6705 37.7081 41.1333 37.6334 39.2918C37.6371 38.9855 37.5419 38.5074 37.5493 38.0292C37.5568 37.5511 37.667 37.1104 37.9807 36.8433C38.4514 36.4418 39.953 36.4306 40.6253 36.3727C41.35 36.2811 42.5434 36.0271 43.0532 36.58C43.5108 37.0973 43.1279 38.4551 43.0159 39.034C42.2371 42.6684 41.6637 46.3421 41.0904 50.0138H41.0885Z" fill="url(#paint0_linear_2330_70)"/>
<path d="M45.3238 43.2457C45.3481 41.6788 45.0381 41.6396 45.2678 40.11C45.3855 39.1911 47.0925 39.0809 48.439 39.0342C49.4214 39.0155 50.6092 39.1687 50.9081 39.8896C51.1565 40.6086 50.7755 41.7628 50.6615 42.5454C50.5999 43.1579 50.5962 43.397 50.5943 43.567C50.5906 43.7705 50.5887 43.9069 50.6821 44.5568C50.7792 45.0013 50.5625 45.6792 51.388 45.795C51.7504 45.8343 52.9419 45.5803 53.3061 45.4831C53.9822 45.2889 54.1447 44.7454 54.1521 44.2001C54.1577 43.8247 54.0606 43.4493 54.0644 43.143C54.027 42.1532 54.197 41.2025 54.1092 40.2127C54.0625 39.8373 53.9187 39.1874 53.9262 38.6084C53.9336 38.063 54.0961 37.5887 54.5649 37.3571C55.3474 36.9593 57.3626 36.9574 58.345 37.006C59.9978 37.0993 60.25 37.5793 60.2873 38.5355C60.2668 39.8298 60.5077 41.0606 60.3844 42.3549C60.3228 43.0702 60.3116 43.7519 60.3004 44.4672C60.2798 45.8641 60.3097 47.2966 60.2873 48.6936C60.2556 50.8059 60.0688 52.9163 60.037 54.995C60.0258 55.7439 59.9119 56.4592 59.9007 57.1745C59.8932 57.6172 60.0931 58.1662 59.5701 58.4987C58.683 59.031 56.5614 59.1692 55.4221 59.2887C53.4536 59.5651 53.7805 58.4464 53.7936 57.5593C53.8085 56.6049 53.7711 55.6505 53.7338 54.7298C53.7375 54.4571 53.7973 53.9809 53.8048 53.5046C53.8141 52.892 53.7207 52.2757 53.2052 52.0983C52.8448 51.9564 51.911 52.1469 51.5487 52.2104C50.7699 52.4027 50.7699 52.4718 50.6578 52.9798C50.5476 53.4561 50.4878 53.9659 50.4804 54.4777C50.4748 54.8867 50.5196 55.2621 50.514 55.6711C50.5607 56.0129 50.6074 56.3883 50.6018 56.7637C50.5924 57.3426 50.4299 57.8861 49.5466 58.1793C48.5063 58.5379 46.7974 58.7508 45.6058 58.8685C43.7942 58.9768 44.2257 57.8245 44.2892 57.0755C44.4666 55.6132 44.5394 54.1826 44.7169 52.7184C45.0231 49.5527 45.2267 46.4207 45.3257 43.2513L45.3238 43.2457Z" fill="url(#paint1_linear_2330_70)"/>
<path d="M62.6473 40.035C62.6044 39.4897 62.4045 38.9406 62.6716 38.399C62.8864 37.891 63.766 37.8013 64.4907 37.8125C65.5253 37.7602 66.6123 37.7416 67.6993 37.622C68.9954 37.4371 70.2897 37.3213 71.5335 37.1346C72.415 37.0113 73.558 36.6546 74.0137 37.241C74.4713 37.7247 74.5124 38.4755 74.5554 39.0564C74.5516 39.329 74.5946 39.9099 74.5852 40.5225C74.574 41.2378 74.5124 41.9531 74.3518 42.2239C73.9801 42.7972 73.1005 42.8869 72.2712 43.0793C71.3374 43.2361 69.7854 43.3482 68.7507 43.4005C67.6657 43.3837 67.1987 43.4789 67.1352 44.2615C67.1296 44.6014 67.1296 44.6705 67.1763 44.9786C67.223 45.2513 67.1707 45.3876 67.322 45.595C67.6246 46.0768 69.2307 45.862 69.9031 45.8396C70.7827 45.75 72.3385 45.5016 73.1658 45.5483C74.1463 45.6659 74.0268 46.7211 74.0716 47.2329C74.1165 47.6419 74.1109 48.0509 74.1034 48.4935C74.1501 48.8353 74.2472 49.2107 74.1389 49.5506C73.6047 50.7011 70.5007 50.7571 69.0514 50.9046C67.8599 51.0223 67.8039 51.295 67.7422 52.0439C67.6787 52.86 67.675 53.0991 67.8169 53.8854C67.9626 54.5689 68.4762 54.7482 69.5632 54.7296C70.5455 54.7445 71.6325 54.625 72.5663 54.5017C73.4478 54.3448 74.2323 53.8107 74.8411 54.5708C75.2482 55.0545 75.1847 55.7698 75.2781 56.3843C75.3734 56.9651 75.5172 57.615 74.9924 58.1174C74.2565 58.8906 72.3889 59.2361 71.1451 59.5238C69.537 59.8058 67.8804 59.9514 66.2257 59.9272C65.3479 59.8805 63.7455 59.7535 63.2879 59.2343C63.0339 58.9243 63.0918 58.4816 63.0451 58.1398C63.0022 57.5945 62.9592 57.0473 62.9667 56.5019C62.9891 55.0713 62.8546 53.7061 62.8247 52.24C62.7893 51.1493 62.7538 50.0567 62.7706 48.9679C62.7799 48.3198 62.7893 47.7073 62.9032 47.061C63.019 46.2449 63.0843 45.3596 63.0451 44.5061C62.9648 42.9709 62.8322 41.503 62.6473 40.035Z" fill="url(#paint2_linear_2330_70)"/>
<path d="M76.5892 41.7038C76.6135 40.1013 77.7584 39.6755 79.5214 39.2945C80.2479 39.1358 81.0249 39.0779 81.6991 38.9191C82.5806 38.7286 83.464 38.5363 83.8674 39.1899C84.4707 40.3236 84.4482 41.7897 84.8965 42.9215C85.3951 44.156 85.7369 45.5249 86.0787 46.7576C86.1758 47.1348 86.3159 48.1583 86.7268 48.403C87.6512 48.8269 87.7708 47.7026 87.881 47.2618C88.1648 45.5959 87.6195 43.986 87.6456 42.35C87.6083 41.4292 87.3711 39.993 87.3879 38.8687C87.3991 38.1534 87.5112 37.5408 87.9295 37.3092C89.1229 37.0888 90.6824 36.5323 91.8142 36.8909C92.2643 37.9536 92.3446 39.3879 92.3241 40.7158C92.3147 41.3284 92.255 41.9073 92.2456 42.4191C92.184 43.1344 92.1728 43.8497 92.1616 44.565C92.1392 46.0311 92.169 47.4281 92.1466 48.8941C92.1317 49.8821 92.1149 50.9392 92.0999 51.9944C92.0682 54.0395 92.0887 56.1182 92.3166 58.0997C92.4473 59.704 90.5311 59.9468 88.8185 60.2624C88.1443 60.423 87.6251 60.4828 87.16 60.4753C86.3327 60.4623 85.7687 60.1466 85.2663 59.1848C84.1139 56.7812 83.4827 54.0451 82.1735 51.7068C82.0222 51.4995 81.9736 51.2941 81.8728 51.055C80.7354 51.0046 80.5244 51.2735 80.5169 51.8189C80.5131 52.1252 80.6103 52.5024 80.6028 52.945C80.6383 54.0021 80.6738 55.0928 80.7615 56.1182C80.7989 57.108 80.9857 58.406 80.8176 59.2894C80.6495 60.2064 78.3187 60.3427 77.1309 60.2904C76.7816 59.5004 76.692 58.5797 76.705 57.6944C76.72 56.6728 76.8918 55.584 76.8544 54.6296C76.8955 51.972 76.6247 49.3779 76.664 46.7538C76.6901 45.0506 76.5594 43.3772 76.5855 41.7075L76.5892 41.7038Z" fill="url(#paint3_linear_2330_70)"/>
<path d="M26.8501 64.281C26.8333 65.4352 26.6933 66.5875 26.6335 67.7417C26.5812 68.5541 26.527 69.3927 26.3907 70.2313C26.344 70.6235 26.0508 71.1445 25.5559 71.4265C24.8966 71.7571 23.7107 71.8449 22.8926 71.9625C22.2371 72.0578 21.2566 72.0951 21.0866 72.5658C20.9596 72.8534 20.954 73.1672 20.9503 73.4828C20.9447 73.8769 20.9802 74.2448 20.9335 74.6109C20.8849 75.1095 20.9185 75.6082 20.9522 76.0807C20.9858 76.5793 20.616 76.7586 19.9175 76.9305C19.3441 77.0799 18.401 77.1957 17.7492 77.134C16.9741 77.0182 17.1515 76.1535 17.0768 75.7333C16.8583 73.9721 16.9255 72.2147 16.8303 70.4292C16.694 68.5896 16.5184 66.75 16.5053 64.9141C16.4754 64.1521 16.2831 63.4144 16.2121 62.6785C16.0982 62.1257 16.7556 61.8213 17.5363 61.571C18.767 61.1956 20.0781 61.0332 21.3873 60.9211C22.2464 60.8557 22.8572 60.9435 23.7144 61.035C24.4073 61.0985 25.3467 61.1116 25.9966 61.3581C26.8091 61.6588 26.796 62.5777 26.8277 63.0763C26.8632 63.4704 26.8558 63.8906 26.8501 64.2847V64.281ZM22.5471 67.8108C22.5546 67.3121 22.6032 66.8415 22.5284 66.3671C22.4537 65.9208 21.9215 65.9899 21.1427 66.1094C20.3639 66.2551 20.362 66.4381 20.3956 66.8322C20.4311 67.2262 20.4236 67.6203 20.418 68.0144C20.4124 68.3561 20.3265 68.6961 20.4834 69.0378C20.6421 69.3292 21.2566 69.1816 21.7496 69.1088C22.8142 68.9669 22.5397 68.2291 22.5453 67.8089L22.5471 67.8108Z" fill="url(#paint4_linear_2330_70)"/>
<path d="M28.4204 62.8736C28.6053 61.4598 30.161 61.2731 31.7971 61.1666C32.574 61.1255 33.1474 61.0041 33.4667 61.5327C33.5863 61.7437 33.6236 62.007 33.618 62.2965C33.6124 62.7167 33.5228 63.1351 33.519 63.4769C33.4873 65.5761 33.4555 67.6753 33.4238 69.7745C33.392 71.8476 33.4835 73.9225 33.4537 75.9415C33.392 77.2525 32.3219 77.8147 30.5644 77.839C30.034 77.8315 28.9303 77.839 28.5679 77.5196C28.327 77.3067 28.2504 76.8585 28.2579 76.3859C28.2635 76.0442 28.3083 75.7304 28.3121 75.5212C28.2784 75.101 28.2841 74.7069 28.2897 74.3129C28.3027 73.5005 28.355 72.6862 28.3681 71.8737C28.3961 70.064 28.1776 68.2487 28.2056 66.4389C28.2112 66.0972 28.256 65.7572 28.2616 65.4155C28.3569 64.5769 28.2878 63.7103 28.4223 62.8718L28.4204 62.8736Z" fill="url(#paint5_linear_2330_70)"/>
<path d="M46.518 71.527C46.5908 72.0537 46.7066 72.6065 46.7384 73.1574C46.7664 74.0502 46.9961 75.0512 47.0223 75.944C47.0129 76.521 47.0858 77.1262 47.1175 77.7033C47.1511 78.1235 46.6599 78.1945 46.0884 78.2393C45.5543 78.3887 44.7381 78.3233 44.1256 78.3924C43.7165 78.4391 43.0199 78.5586 42.4484 78.5512C41.8769 78.5437 41.3876 78.4036 41.2718 77.9815C41.1542 77.6117 41.6939 77.1486 41.001 76.9805C40.9188 76.9805 40.7974 76.9768 40.6331 77.001C40.0579 77.1766 39.3183 77.5576 38.6646 77.4698C38.2985 77.4119 37.6897 77.1392 37.3647 77.0048C37.0398 76.8423 36.6756 76.6798 36.4328 76.465C35.8277 75.957 35.8781 75.3799 35.8053 74.7767C35.626 73.1201 35.5288 71.4392 35.555 69.7602C35.5681 68.9198 35.6222 68.0551 35.6745 67.2165C35.7249 66.5871 35.7343 65.9577 35.7436 65.3283C35.753 64.6989 35.7623 64.0695 35.8127 63.4401C35.9061 62.7323 35.8725 62.1552 36.8586 61.7761C37.3927 61.5744 37.8858 61.3447 38.3807 61.1168C38.997 60.8908 39.6115 60.7676 40.267 60.5939C40.6779 60.4687 41.171 60.2932 41.6211 60.2465C41.989 60.226 42.3961 60.2838 42.7641 60.3156C43.1712 60.3735 43.5783 60.4594 44.0284 60.493C44.4356 60.5248 44.8857 60.5322 45.2517 60.6163C46.066 60.7862 46.2229 61.1822 46.3387 61.6566C46.4526 62.2355 46.3611 62.8108 46.3536 63.3617L46.3387 64.3852C46.3312 64.8577 46.3182 65.7504 46.2696 66.2211C46.2621 66.6674 46.2547 67.1922 45.6794 67.4201C45.1042 67.6218 44.2021 67.8179 43.5895 67.8608C43.2216 67.8814 42.9359 67.8515 42.6931 67.689C42.37 67.4742 42.4932 67.3454 42.5381 67.0839C42.6277 66.561 42.6352 66.01 42.5213 65.4833C42.4073 64.9567 42.1197 65.0575 41.2195 65.1229C40.4426 65.1901 39.6246 65.2816 39.492 65.8569C39.3145 66.8243 39.1408 67.3995 39.1296 68.1877C39.1259 68.4772 39.1614 68.7909 39.1969 69.1588C39.2678 69.8947 39.3762 70.7893 39.4061 71.5233C39.3986 72.0481 39.6787 72.4197 39.9159 72.9221C40.0336 73.2396 40.1139 73.3181 40.6051 73.3255C40.8908 73.3293 41.3801 73.389 41.6678 73.3423C42.2822 73.2471 42.6968 72.8063 42.7024 72.4403C42.7024 72.3357 42.6725 71.6783 42.5511 71.6764C42.228 71.4616 41.8153 71.6652 41.4474 71.7119C40.5472 71.8296 40.5117 71.4878 40.3548 71.0134C40.3175 70.8285 40.2801 70.5129 40.2857 70.173C40.2913 69.805 40.338 69.439 40.5845 69.2858C40.9562 69.0281 41.9367 69.043 42.469 68.9478C43.2459 68.8544 43.9836 68.7872 44.7606 68.6677C45.4983 68.5743 46.4396 68.352 47.2146 68.4958C47.9486 68.6378 47.9729 69.7154 47.9654 70.1337C48.0383 70.6866 47.3043 70.6754 46.8486 71.062C46.6413 71.217 46.5572 71.372 46.5143 71.5289L46.518 71.527Z" fill="url(#paint6_linear_2330_70)"/>
<path d="M59.3414 65.3622C59.3787 65.6256 59.4945 65.9935 59.4889 66.3876C59.4833 66.8078 59.3545 67.172 59.0239 67.4036C58.57 67.7117 58.2862 67.6015 57.7128 67.6986C56.8537 67.8163 55.466 67.665 55.5183 66.9833C55.5669 66.5127 55.6509 66.3297 55.6117 66.1709C55.5762 65.8291 55.537 65.7246 54.9655 65.7414C54.5976 65.7619 53.8207 65.7768 53.533 65.93C52.7916 66.2867 52.9541 66.3932 52.9485 66.7349C52.9429 67.129 52.7729 67.5455 53.7478 67.8761C54.6835 68.1786 55.6584 68.5353 56.6333 68.8118C57.6101 69.1162 58.9118 69.372 59.7224 69.9081C60.3294 70.3115 60.1146 71.0417 60.1052 71.6188C60.1314 72.59 59.8718 73.5313 59.4497 74.4688C59.0706 75.2495 58.5159 76.7641 57.8921 77.4626C57.3523 78.0323 57.1861 78.2396 56.2841 78.4095C55.0141 78.6523 54.155 78.77 53.5424 78.7606C52.3994 78.7438 52.0782 78.318 51.3124 77.6251C50.627 77.0107 50.0238 76.3719 49.8314 75.5558C49.639 74.7658 49.286 73.8413 49.2972 73.0289C49.2711 72.0577 50.6251 71.6842 51.8503 71.7029C52.3004 71.7103 52.7075 71.7682 53.0736 71.8784C53.8879 72.0745 53.5517 72.7263 53.6656 73.2511C53.7422 73.6452 53.8094 74.5921 54.4613 74.6276C55.1149 74.6369 56.0674 73.733 56.3196 73.3445C56.6968 72.7469 56.7061 72.0913 55.8545 71.7365C54.9207 71.3555 54.0672 71.0529 53.0493 70.8008C52.2761 70.6047 50.8063 70.5038 50.076 70.205C49.3047 69.8782 49.4373 69.2506 49.3645 68.6717C49.2562 67.7509 49.4336 66.8097 49.4485 65.8385C49.4635 64.8673 49.4429 63.5021 50.2329 62.6486C50.8997 61.8455 52.1286 61.5747 53.2772 61.2254C54.3436 60.9005 55.3671 60.837 56.4297 60.8015C56.9209 60.7828 57.4924 60.7118 57.9836 60.7193C58.4748 60.7268 58.9212 60.8127 59.1621 61.1302C59.3227 61.3169 59.3993 61.6064 59.3955 61.9202C59.3899 62.3143 59.3003 62.7588 59.3376 63.0221C59.4086 63.7841 59.1117 64.5143 59.3432 65.3585L59.3414 65.3622Z" fill="url(#paint7_linear_2330_70)"/>
<path d="M67.7334 66.5896C67.7427 66.0125 67.711 65.4354 67.7184 64.8845C67.7278 64.229 67.3729 63.4614 67.6269 62.8096C67.9239 62.0532 69.1061 62.2549 70.1277 62.2698C71.3528 62.2885 72.7031 62.1783 73.891 61.9598C74.7109 61.8141 75.9827 61.4144 76.713 61.7656C77.1593 61.9561 77.2359 62.3501 77.2284 62.7442C77.2228 63.1121 77.135 63.4782 77.1313 63.7396C77.1238 64.2906 77.1836 65.6558 76.7279 66.0947C76.2292 66.6121 74.5148 66.5598 73.6146 66.6251C72.9609 66.6681 71.5732 66.5672 71.2408 66.9557C70.9905 67.2676 70.8953 68.1846 71.2595 68.4517C71.7843 68.8794 73.7957 68.2537 74.5727 68.1865C75.8819 68.1006 76.2479 68.1323 76.4384 69.0549C76.515 69.4228 76.6252 70.1606 76.6158 70.7638C76.6102 71.0794 76.5654 71.3409 76.4814 71.5221C76.1041 72.0936 74.554 71.9647 73.6967 71.9778C73.1663 71.9703 72.4678 72.1944 72.2176 72.5063C72.0513 72.7398 72.2045 73.3467 72.2008 73.6082C72.2699 74.4225 72.3857 74.8446 72.4566 75.6327C72.4921 76.0007 72.4454 76.3667 72.522 76.7103C72.5575 77.026 72.6751 77.3416 72.5481 77.6554C72.2941 78.2287 71.0241 78.4977 70.1239 78.5369C69.6328 78.5556 69.0183 78.7031 68.613 78.5406C68.0845 78.3221 68.1293 78.1129 68.1368 77.6404C68.0714 76.5367 68.0527 75.1191 68.0285 74.0172C67.9724 72.2841 67.5503 70.493 67.5784 68.7356C67.584 68.3153 67.5914 67.869 67.6792 67.4506C67.724 67.163 67.7296 66.8735 67.7334 66.5859V66.5896Z" fill="url(#paint8_linear_2330_70)"/>
<path d="M78.7662 63.4974C78.7718 63.0772 78.5794 62.3918 79.2368 62.1397C79.5655 61.9865 80.0959 62.022 80.4657 61.9492C80.9569 61.8782 81.45 61.7549 81.9804 61.7363C82.8376 61.7232 83.6967 61.7624 83.8088 62.3675C83.9582 63.2883 83.6986 64.2296 83.6855 65.1204C83.665 66.4576 83.523 67.7687 83.5025 69.0798L83.4913 69.8661C83.523 70.4973 83.5174 70.8634 83.5118 71.2575C83.5062 71.6515 83.5006 72.0437 83.4502 72.647C83.4035 73.0915 83.1831 74.1131 84.4475 74.184C85.3048 74.2233 85.2655 74.1448 86.0443 73.9991C86.7821 73.8796 87.686 73.4725 88.1286 74.0047C88.4499 74.4287 88.4667 76.005 88.5414 76.4513C88.6142 77.0826 88.2015 77.3123 87.5011 77.669C86.3488 78.2293 85.9379 78.3806 84.5054 78.5954C83.5641 78.7653 82.4585 78.9316 81.4369 78.9166C81.0279 78.911 80.6207 78.8774 80.2136 78.7934C79.2368 78.5954 79.0388 78.1714 78.9249 77.5925C78.8147 76.724 78.7886 75.8051 78.7214 74.9124C78.6522 74.072 78.6653 73.2054 78.6784 72.3668C78.6859 71.8159 78.6952 71.2649 78.7045 70.6878C78.7419 68.2748 78.7363 65.8861 78.7736 63.4993L78.7662 63.4974Z" fill="url(#paint9_linear_2330_70)"/>
<path d="M97.7771 65.2084C97.0991 66.7735 96.5014 68.4432 96.0289 70.0363C95.5975 71.5248 95.3006 72.255 94.9513 73.7192C94.645 75.0266 94.2173 76.3582 93.8289 77.6655C93.743 77.9793 93.7747 78.5564 93.362 78.8123C92.9903 79.042 92.1349 78.9505 91.6456 78.8907C91.033 78.8291 89.8489 78.8366 89.735 78.3099C89.6566 78.0727 89.9068 77.7608 89.9517 77.5255C90.1216 77.0828 90.2094 76.6365 90.3401 76.1939C90.5138 75.514 90.5213 75.0415 90.6502 74.597C90.6968 74.1787 90.8649 73.8911 90.667 73.469C90.2318 72.5445 89.6342 71.5378 88.9525 70.6619C88.0299 69.5189 87.5984 68.3853 86.9635 67.1414C86.7655 66.7194 86.3285 65.8976 86.2127 65.4512C86.095 65.1076 86.1454 64.4539 86.5171 64.1962C86.8887 63.9123 87.5854 63.7405 88.1195 63.5649C88.7358 63.3389 89.3111 63.0849 90.0488 62.9916C90.8257 62.8982 90.7361 63.4211 90.8126 63.8171C90.9677 64.3176 91.0835 64.8181 91.2385 65.3186C91.4346 65.7949 91.4271 66.2917 91.7035 67.0051C91.7838 67.1377 92.1723 68.4301 92.2937 68.5104C92.4543 68.6449 92.8652 68.5198 93.1528 68.4712C93.3246 67.8698 93.7075 66.9584 93.8382 66.3552C93.8849 66.0153 94.0138 65.5969 94.0605 65.2047C94.2341 64.4726 94.4508 63.7666 94.7459 63.0625C95.0839 62.28 94.7646 61.7776 96.0345 61.5871C96.8937 61.4956 97.3867 61.3723 98.244 61.3835C99.3459 61.4003 99.2562 61.9494 99.0041 62.4966C98.6642 63.4099 98.1188 64.2933 97.7789 65.2066L97.7771 65.2084Z" fill="url(#paint10_linear_2330_70)"/>
<defs>
<linearGradient id="paint0_linear_2330_70" x1="32.8814" y1="16.4479" x2="31.4583" y2="110.162" gradientUnits="userSpaceOnUse">
<stop offset="0.3" stop-color="#8C683E"/>
<stop offset="0.33" stop-color="#B19A58"/>
<stop offset="0.37" stop-color="#B8CFFF"/>
<stop offset="0.4" stop-color="#B8CFFF"/>
<stop offset="0.43" stop-color="#B8CFFF"/>
<stop offset="0.44" stop-color="#B8CFFF"/>
<stop offset="0.51" stop-color="#B8CFFF"/>
<stop offset="0.53" stop-color="#B8CFFF"/>
<stop offset="0.55" stop-color="#B8CFFF"/>
<stop offset="0.56" stop-color="#B8CFFF"/>
<stop offset="0.57" stop-color="#B8CFFF"/>
<stop offset="0.58" stop-color="#B8CFFF"/>
<stop offset="0.59" stop-color="#A4884F"/>
<stop offset="0.6" stop-color="#8C683E"/>
</linearGradient>
<linearGradient id="paint1_linear_2330_70" x1="52.6714" y1="16.7337" x2="51.2483" y2="110.448" gradientUnits="userSpaceOnUse">
<stop offset="0.3" stop-color="#8C683E"/>
<stop offset="0.33" stop-color="#B19A58"/>
<stop offset="0.37" stop-color="#B8CFFF"/>
<stop offset="0.4" stop-color="#B8CFFF"/>
<stop offset="0.43" stop-color="#B8CFFF"/>
<stop offset="0.44" stop-color="#B8CFFF"/>
<stop offset="0.51" stop-color="#B8CFFF"/>
<stop offset="0.53" stop-color="#F6F688"/>
<stop offset="0.55" stop-color="#EDEA82"/>
<stop offset="0.56" stop-color="#E1D979"/>
<stop offset="0.57" stop-color="#D0C36D"/>
<stop offset="0.58" stop-color="#BCA85F"/>
<stop offset="0.59" stop-color="#A4884F"/>
<stop offset="0.6" stop-color="#8C683E"/>
</linearGradient>
<linearGradient id="paint2_linear_2330_70" x1="69.2526" y1="16.9871" x2="67.8295" y2="110.701" gradientUnits="userSpaceOnUse">
<stop offset="0.3" stop-color="#8C683E"/>
<stop offset="0.33" stop-color="#B19A58"/>
<stop offset="0.37" stop-color="#B8CFFF"/>
<stop offset="0.4" stop-color="#B8CFFF"/>
<stop offset="0.43" stop-color="#B8CFFF"/>
<stop offset="0.44" stop-color="#B8CFFF"/>
<stop offset="0.51" stop-color="#B8CFFF"/>
<stop offset="0.53" stop-color="#B8CFFF"/>
<stop offset="0.55" stop-color="#B8CFFF"/>
<stop offset="0.56" stop-color="#B8CFFF"/>
<stop offset="0.57" stop-color="#B8CFFF"/>
<stop offset="0.58" stop-color="#BCA85F"/>
<stop offset="0.59" stop-color="#A4884F"/>
<stop offset="0.6" stop-color="#8C683E"/>
</linearGradient>
<linearGradient id="paint3_linear_2330_70" x1="84.7515" y1="17.2139" x2="83.3284" y2="110.928" gradientUnits="userSpaceOnUse">
<stop offset="0.3" stop-color="#8C683E"/>
<stop offset="0.33" stop-color="#B19A58"/>
<stop offset="0.37" stop-color="#B8CFFF"/>
<stop offset="0.4" stop-color="#B8CFFF"/>
<stop offset="0.43" stop-color="#B8CFFF"/>
<stop offset="0.44" stop-color="#B8CFFF"/>
<stop offset="0.51" stop-color="#B8CFFF"/>
<stop offset="0.53" stop-color="#B8CFFF"/>
<stop offset="0.55" stop-color="#B8CFFF"/>
<stop offset="0.56" stop-color="#B8CFFF"/>
<stop offset="0.57" stop-color="#B8CFFF"/>
<stop offset="0.58" stop-color="#BCA85F"/>
<stop offset="0.59" stop-color="#A4884F"/>
<stop offset="0.6" stop-color="#8C683E"/>
</linearGradient>
<linearGradient id="paint4_linear_2330_70" x1="22.2683" y1="9.78116" x2="20.8218" y2="105.037" gradientUnits="userSpaceOnUse">
<stop offset="0.3" stop-color="#8C683E"/>
<stop offset="0.33" stop-color="#B19A58"/>
<stop offset="0.37" stop-color="#B8CFFF"/>
<stop offset="0.4" stop-color="#B8CFFF"/>
<stop offset="0.43" stop-color="#B8CFFF"/>
<stop offset="0.44" stop-color="#B8CFFF"/>
<stop offset="0.51" stop-color="#B8CFFF"/>
<stop offset="0.53" stop-color="#B8CFFF"/>
<stop offset="0.55" stop-color="#B8CFFF"/>
<stop offset="0.56" stop-color="#B8CFFF" stop-opacity="0.811765"/>
<stop offset="0.57" stop-color="#B8CFFF"/>
<stop offset="0.58" stop-color="#BCA85F"/>
<stop offset="0.59" stop-color="#A4884F"/>
<stop offset="0.6" stop-color="#8C683E"/>
</linearGradient>
<linearGradient id="paint5_linear_2330_70" x1="31.6677" y1="9.90982" x2="30.2212" y2="105.165" gradientUnits="userSpaceOnUse">
<stop offset="0.3" stop-color="#8C683E"/>
<stop offset="0.33" stop-color="#B19A58"/>
<stop offset="0.37" stop-color="#B8CFFF"/>
<stop offset="0.4" stop-color="#B8CFFF"/>
<stop offset="0.43" stop-color="#B8CFFF"/>
<stop offset="0.44" stop-color="#B8CFFF"/>
<stop offset="0.51" stop-color="#B8CFFF"/>
<stop offset="0.53" stop-color="#B8CFFF"/>
<stop offset="0.55" stop-color="#B8CFFF"/>
<stop offset="0.56" stop-color="#B8CFFF"/>
<stop offset="0.57" stop-color="#B8CFFF"/>
<stop offset="0.58" stop-color="#BCA85F"/>
<stop offset="0.59" stop-color="#A4884F"/>
<stop offset="0.6" stop-color="#8C683E"/>
</linearGradient>
<linearGradient id="paint6_linear_2330_70" x1="42.5621" y1="10.0814" x2="41.1156" y2="105.337" gradientUnits="userSpaceOnUse">
<stop offset="0.3" stop-color="#8C683E"/>
<stop offset="0.33" stop-color="#B19A58"/>
<stop offset="0.37" stop-color="#B8CFFF"/>
<stop offset="0.4" stop-color="#B8CFFF"/>
<stop offset="0.43" stop-color="#B8CFFF"/>
<stop offset="0.44" stop-color="#B8CFFF"/>
<stop offset="0.51" stop-color="#B8CFFF"/>
<stop offset="0.53" stop-color="#B8CFFF"/>
<stop offset="0.55" stop-color="#B8CFFF"/>
<stop offset="0.56" stop-color="#B8CFFF"/>
<stop offset="0.57" stop-color="#B8CFFF"/>
<stop offset="0.58" stop-color="#BCA85F"/>
<stop offset="0.59" stop-color="#A4884F"/>
<stop offset="0.6" stop-color="#8C683E"/>
</linearGradient>
<linearGradient id="paint7_linear_2330_70" x1="55.4893" y1="10.1652" x2="54.0428" y2="105.421" gradientUnits="userSpaceOnUse">
<stop offset="0.3" stop-color="#8C683E"/>
<stop offset="0.33" stop-color="#B19A58"/>
<stop offset="0.37" stop-color="#B8CFFF"/>
<stop offset="0.4" stop-color="#B8CFFF"/>
<stop offset="0.43" stop-color="#B8CFFF"/>
<stop offset="0.44" stop-color="#B8CFFF"/>
<stop offset="0.51" stop-color="#B8CFFF"/>
<stop offset="0.53" stop-color="#B8CFFF"/>
<stop offset="0.55" stop-color="#B8CFFF"/>
<stop offset="0.56" stop-color="#B8CFFF"/>
<stop offset="0.57" stop-color="#B8CFFF"/>
<stop offset="0.58" stop-color="#BCA85F"/>
<stop offset="0.59" stop-color="#A4884F"/>
<stop offset="0.6" stop-color="#8C683E"/>
</linearGradient>
<linearGradient id="paint8_linear_2330_70" x1="72.9928" y1="10.6382" x2="71.5463" y2="105.894" gradientUnits="userSpaceOnUse">
<stop offset="0.3" stop-color="#8C683E"/>
<stop offset="0.33" stop-color="#B19A58"/>
<stop offset="0.37" stop-color="#B8CFFF"/>
<stop offset="0.4" stop-color="#B8CFFF"/>
<stop offset="0.43" stop-color="#B8CFFF"/>
<stop offset="0.44" stop-color="#B8CFFF"/>
<stop offset="0.51" stop-color="#B8CFFF"/>
<stop offset="0.53" stop-color="#B8CFFF"/>
<stop offset="0.55" stop-color="#B8CFFF"/>
<stop offset="0.56" stop-color="#B8CFFF"/>
<stop offset="0.57" stop-color="#B8CFFF"/>
<stop offset="0.58" stop-color="#BCA85F"/>
<stop offset="0.59" stop-color="#A4884F"/>
<stop offset="0.6" stop-color="#8C683E"/>
</linearGradient>
<linearGradient id="paint9_linear_2330_70" x1="84.3323" y1="10.8054" x2="82.8858" y2="106.061" gradientUnits="userSpaceOnUse">
<stop offset="0.3" stop-color="#8C683E"/>
<stop offset="0.33" stop-color="#B19A58"/>
<stop offset="0.37" stop-color="#B8CFFF"/>
<stop offset="0.4" stop-color="#B8CFFF"/>
<stop offset="0.43" stop-color="#B8CFFF"/>
<stop offset="0.44" stop-color="#B8CFFF"/>
<stop offset="0.51" stop-color="#B8CFFF"/>
<stop offset="0.53" stop-color="#B8CFFF"/>
<stop offset="0.55" stop-color="#B8CFFF"/>
<stop offset="0.56" stop-color="#B8CFFF"/>
<stop offset="0.57" stop-color="#B8CFFF"/>
<stop offset="0.58" stop-color="#BCA85F"/>
<stop offset="0.59" stop-color="#A4884F"/>
<stop offset="0.6" stop-color="#8C683E"/>
</linearGradient>
<linearGradient id="paint10_linear_2330_70" x1="93.2342" y1="10.9446" x2="91.7877" y2="106.2" gradientUnits="userSpaceOnUse">
<stop offset="0.3" stop-color="#8C683E"/>
<stop offset="0.33" stop-color="#B8CFFF"/>
<stop offset="0.37" stop-color="#B8CFFF"/>
<stop offset="0.4" stop-color="#8FB3FF"/>
<stop offset="0.43" stop-color="#B8CFFF"/>
<stop offset="0.44" stop-color="#B8CFFF"/>
<stop offset="0.51" stop-color="#B8CFFF"/>
<stop offset="0.53" stop-color="#B8CFFF"/>
<stop offset="0.55" stop-color="#B8CFFF"/>
<stop offset="0.56" stop-color="#B8CFFF"/>
<stop offset="0.57" stop-color="#B8CFFF"/>
<stop offset="0.58" stop-color="#B8CFFF"/>
<stop offset="0.59" stop-color="#A4884F"/>
<stop offset="0.6" stop-color="#8C683E"/>
</linearGradient>
</defs>
</svg>
