<svg width="112" height="63" viewBox="0 0 112 63" fill="none" xmlns="http://www.w3.org/2000/svg">
<path d="M55.6199 62.4597C86.338 62.4597 111.24 48.4776 111.24 31.2299C111.24 13.9821 86.338 0 55.6199 0C24.9019 0 0 13.9821 0 31.2299C0 48.4776 24.9019 62.4597 55.6199 62.4597Z" fill="#574429"/>
<path d="M55.6214 59.763C83.6759 59.763 106.419 46.9932 106.419 31.2409C106.419 15.4885 83.6759 2.71875 55.6214 2.71875C27.5669 2.71875 4.82422 15.4885 4.82422 31.2409C4.82422 46.9932 27.5669 59.763 55.6214 59.763Z" fill="#C9DBFF"/>
<path d="M22.6266 47.7415C22.6266 47.2994 22.7452 46.8889 22.9824 46.51C23.2196 46.131 23.5912 45.7205 24.0972 45.2784C24.6032 44.7732 24.9668 44.3785 25.1882 44.0943C25.4096 43.8101 25.6072 43.3996 25.7812 42.8628C25.9551 42.326 26.1686 41.5129 26.4216 40.4077L30.7225 19.7167H30.4379C30.2798 19.7167 29.9477 19.6851 29.4417 19.622C28.8092 19.4957 28.1451 19.4325 27.4573 19.4325C26.5402 19.4325 25.7812 19.5588 25.1645 19.8114C24.5478 20.064 23.9865 20.5219 23.4884 21.185C23.3303 21.4061 23.1721 21.5876 23.014 21.7297C22.8559 21.8718 22.7136 21.9429 22.5871 21.9429C22.3025 21.9429 22.1602 21.785 22.1602 21.4692C22.1602 21.1535 22.1918 20.9008 22.255 20.7114C22.5713 19.1088 23.3461 17.8379 24.5715 16.9063C25.8049 15.9748 27.3466 15.509 29.2046 15.509C29.584 15.509 30.1849 15.5406 30.9993 15.6038C31.7266 15.6985 32.4777 15.7459 33.2683 15.7459C33.5529 15.7459 34.2645 15.6985 35.3951 15.6038C35.9643 15.5406 36.3596 15.509 36.581 15.509C36.5178 16.33 36.4861 17.0405 36.4861 17.6326C36.4861 18.801 36.6285 20.143 36.9131 21.6745C37.1977 23.206 37.6563 25.3374 38.2887 28.0768L39.7514 34.3606C39.9728 34.9922 40.1151 35.5448 40.1783 36.0105C43.4278 30.153 45.5782 26.2058 46.6377 24.177C47.6971 22.1481 48.5826 20.3403 49.31 18.7694C49.6894 18.0115 49.9899 17.3879 50.2113 16.8826C51.4683 14.3012 52.6147 12.3513 53.6425 11.0251C54.6703 9.69883 55.8879 8.69625 57.311 8.00155C58.2597 7.52789 59.2638 7.21212 60.3391 7.05424C61.4143 6.89635 62.6556 6.81741 64.0787 6.81741C64.8061 6.81741 65.3358 6.75425 65.6836 6.62795C65.905 6.56479 66.0948 6.50164 66.2529 6.43848C66.411 6.37533 66.5375 6.34375 66.6324 6.34375C66.8854 6.34375 67.0119 6.51742 67.0119 6.86477C67.0119 7.5279 66.6166 8.17523 65.8259 8.79888C65.0353 9.43042 64.2052 9.74619 63.3197 9.74619C62.2761 9.77777 61.4301 9.84093 60.766 9.93566C60.1019 10.0304 59.4536 10.2199 58.829 10.504C57.6272 11.0724 56.718 12.0908 56.0855 13.5749C55.453 15.0591 54.9312 17.2616 54.528 20.1904C54.3067 21.5482 54.109 23.056 53.9351 24.7217C53.7611 26.3874 53.5951 28.1241 53.437 29.9161C53.0259 34.5106 52.6305 38.3394 52.2511 41.3945C52.2194 41.9944 52.1008 42.5391 51.8953 43.0207C51.6897 43.5101 51.4446 43.8812 51.16 44.1338V44.1811C51.7925 44.4969 52.4171 44.6548 53.0496 44.6548C53.4923 44.6548 53.943 44.568 54.4015 44.3943C54.8601 44.2206 55.1526 44.1338 55.2791 44.1338C55.4056 44.1338 55.4926 44.1654 55.54 44.2285C55.5875 44.2917 55.6112 44.418 55.6112 44.6074C55.6112 45.0179 55.4214 45.4284 55.0419 45.8389C53.7769 47.4731 52.5515 48.2941 51.3497 48.2941C50.907 48.2941 50.2903 48.1836 49.5076 47.9625C49.4127 47.9309 49.1123 47.852 48.6063 47.7257C48.1003 47.5994 47.5943 47.5362 47.0962 47.5362C46.4321 47.5362 45.8075 47.6625 45.2304 47.9151C44.6453 48.1678 44.2895 48.2941 44.163 48.2941C43.9417 48.2941 43.831 48.1046 43.831 47.7257C43.831 46.8731 44.337 46.06 45.3411 45.2706L46.1949 44.6074C46.5744 44.3232 46.8353 44.0943 46.9776 43.9206C47.1199 43.747 47.2069 43.4707 47.2385 43.0917L47.3334 42.097C47.8394 36.6184 48.1873 33.1607 48.377 31.7318C48.5668 30.303 48.7723 28.5899 48.9937 26.6084H48.9463C47.618 28.7162 46.2503 31.1555 44.8272 33.9264C43.404 36.6973 42.2576 39.2156 41.3722 41.4813C40.6764 42.6496 39.8621 43.7785 38.9371 44.8837C38.0041 45.9889 37.3716 46.5336 37.0238 46.5336C36.9289 46.5336 36.8577 46.4784 36.8103 46.3679C36.7629 46.2573 36.7391 46.1074 36.7391 45.9179C36.4861 43.6522 36.2885 41.9865 36.1462 40.9366C36.0039 39.8787 35.6955 38.2841 35.2212 36.1447C34.9998 35.1974 34.6756 33.8159 34.2487 31.9844C33.8218 30.1609 33.5134 28.7399 33.3237 27.7294L33.2762 27.6821L30.3905 41.9944C30.3589 42.0892 30.2561 42.4286 30.0821 43.0128C29.9082 43.597 29.6947 43.9996 29.4417 44.2206V44.3153C30.0426 44.5364 30.6119 44.6469 31.1416 44.6469C31.6159 44.6469 32.035 44.5601 32.3986 44.3864C32.7623 44.2127 33.0074 44.1259 33.1339 44.1259C33.3869 44.1259 33.5134 44.2838 33.5134 44.5995C33.5134 44.8837 33.3237 45.2942 32.9442 45.8311C32.2484 46.7784 31.6476 47.4178 31.1495 47.7652C30.6435 48.1125 30.0742 48.2862 29.4496 48.2862C29.0069 48.2862 28.4693 48.1599 27.8447 47.9073C27.0857 47.6546 26.4532 47.5283 25.9551 47.5283C25.2277 47.5283 24.5636 47.6546 23.9707 47.9073C23.3698 48.1599 23.0219 48.2862 22.9271 48.2862C22.7373 48.2862 22.6424 48.0967 22.6424 47.7178L22.6266 47.7415Z" fill="#8C683E"/>
<path d="M66.6157 6.35917C66.8687 6.35917 66.9952 6.53284 66.9952 6.88019C66.9952 7.54332 66.5998 8.19065 65.8092 8.8143C65.0186 9.44584 64.1885 9.76162 63.303 9.76162C62.2594 9.79319 61.4134 9.85635 60.7493 9.95108C60.0852 10.0458 59.4368 10.2353 58.8123 10.5195C57.6105 11.0879 56.7013 12.1062 56.0688 13.5904C55.4363 15.0745 54.9145 17.277 54.5113 20.2058C54.2899 21.5636 54.0923 23.0714 53.9183 24.7371C53.7444 26.4028 53.5784 28.1396 53.4202 29.9316C53.0091 34.526 52.6138 38.3548 52.2343 41.4099C52.2027 42.0098 52.0841 42.5546 51.8785 43.0361C51.673 43.5256 51.4279 43.8966 51.1433 44.1492V44.1966C51.7758 44.5123 52.4004 44.6702 53.0328 44.6702C53.4756 44.6702 53.9262 44.5834 54.3848 44.4097C54.8434 44.236 55.1359 44.1492 55.2624 44.1492C55.3889 44.1492 55.4759 44.1808 55.5233 44.2439C55.5707 44.3071 55.5944 44.4334 55.5944 44.6229C55.5944 45.0334 55.4047 45.4439 55.0252 45.8544C53.7602 47.4885 52.5348 48.3095 51.333 48.3095C50.8903 48.3095 50.2736 48.199 49.4909 47.9779C49.396 47.9464 49.0956 47.8674 48.5896 47.7411C48.0836 47.6148 47.5776 47.5517 47.0795 47.5517C46.4154 47.5517 45.7908 47.678 45.2136 47.9306C44.6286 48.1832 44.2728 48.3095 44.1463 48.3095C43.9249 48.3095 43.8143 48.12 43.8143 47.7411C43.8143 46.8885 44.3202 46.0754 45.3243 45.286L46.1782 44.6229C46.5577 44.3387 46.8186 44.1097 46.9609 43.9361C47.1032 43.7624 47.1902 43.4861 47.2218 43.1072L47.3167 42.1125C47.8227 36.6338 48.1706 33.1761 48.3603 31.7473C48.55 30.3184 48.7556 28.6053 48.977 26.6238H48.9295C47.6013 28.7316 46.2335 31.171 44.8104 33.9419C43.3873 36.7128 42.2409 39.231 41.3554 41.4967C40.6597 42.6651 39.8453 43.794 38.9203 44.8992C37.9874 46.0044 37.3549 46.5491 37.007 46.5491C36.9122 46.5491 36.841 46.4938 36.7936 46.3833C36.7461 46.2728 36.7224 46.1228 36.7224 45.9333C36.4694 43.6677 36.2718 42.002 36.1294 40.952C35.9871 39.8942 35.6788 38.2995 35.2044 36.1602C34.9831 35.2129 34.6589 33.8313 34.232 31.9999C33.805 30.1763 33.4967 28.7553 33.3069 27.7448L33.2595 27.6975L30.3738 42.0098C30.3421 42.1046 30.2393 42.444 30.0654 43.0282C29.8915 43.6124 29.678 44.015 29.425 44.236V44.3308C30.0259 44.5518 30.5951 44.6623 31.1248 44.6623C31.5992 44.6623 32.0182 44.5755 32.3819 44.4018C32.7456 44.2281 32.9907 44.1413 33.1172 44.1413C33.3702 44.1413 33.4967 44.2992 33.4967 44.615C33.4967 44.8992 33.3069 45.3097 32.9274 45.8465C32.2317 46.7938 31.6308 47.4332 31.1327 47.7806C30.6267 48.1279 30.0575 48.3016 29.4329 48.3016C28.9902 48.3016 28.4525 48.1753 27.828 47.9227C27.069 47.6701 26.4365 47.5438 25.9384 47.5438C25.211 47.5438 24.5469 47.6701 23.9539 47.9227C23.3531 48.1753 23.0052 48.3016 22.9103 48.3016C22.7206 48.3016 22.6257 48.1121 22.6257 47.7332C22.6257 47.2911 22.7443 46.8806 22.9815 46.5017C23.2187 46.1228 23.5903 45.7123 24.0962 45.2702C24.6022 44.765 24.9659 44.3702 25.1873 44.086C25.4087 43.8019 25.6063 43.3913 25.7803 42.8545C25.9542 42.3177 26.1677 41.5046 26.4207 40.3994L30.7216 19.7084H30.437C30.2789 19.7084 29.9468 19.6769 29.4408 19.6137C28.8083 19.4874 28.1442 19.4242 27.4564 19.4242C26.5393 19.4242 25.7803 19.5506 25.1636 19.8032C24.5469 20.0558 23.9856 20.5137 23.4875 21.1768C23.3293 21.3978 23.1712 21.5794 23.0131 21.7215C22.855 21.8636 22.7127 21.9346 22.5862 21.9346C22.3015 21.9346 22.1592 21.7767 22.1592 21.461C22.1592 21.1452 22.1909 20.8926 22.2541 20.7031C22.5704 19.1006 23.3452 17.8296 24.5706 16.8981C25.804 15.9665 27.3457 15.5008 29.2036 15.5008C29.5831 15.5008 30.184 15.5324 30.9983 15.5955C31.7257 15.6902 32.4768 15.7376 33.2674 15.7376C33.552 15.7376 34.2636 15.6902 35.3942 15.5955C35.9634 15.5324 36.3587 15.5008 36.5801 15.5008C36.5168 16.3218 36.4852 17.0323 36.4852 17.6243C36.4852 18.7927 36.6275 20.1347 36.9122 21.6662C37.1968 23.1977 37.6553 25.3292 38.2878 28.0685L39.7505 34.3524C39.9718 34.9839 40.1142 35.5365 40.1774 36.0023C43.4268 30.1447 45.5773 26.1976 46.6368 24.1687C47.6962 22.1399 48.5817 20.3321 49.309 18.7611C49.6885 18.0033 49.989 17.3796 50.2103 16.8744C51.4674 14.2929 52.6138 12.3431 53.6416 11.0168C54.6694 9.69057 55.887 8.68799 57.3101 7.99329C58.2588 7.51963 59.2629 7.20386 60.3382 7.04597C61.4134 6.88809 62.6547 6.80914 64.0778 6.80914C64.8051 6.80914 65.3349 6.74599 65.6827 6.61968C65.9041 6.55653 66.0939 6.49337 66.252 6.43022C66.4101 6.36706 66.5366 6.33549 66.6315 6.33549M66.6157 4.15666C66.2362 4.15666 65.8409 4.2356 65.4218 4.40928C65.3586 4.43296 65.2479 4.47243 65.066 4.52769L64.987 4.55137L64.9237 4.57506C64.9237 4.57506 64.6549 4.63821 64.0541 4.63821C62.5361 4.63821 61.1683 4.72505 59.9982 4.89872C58.7016 5.08819 57.4603 5.47501 56.3139 6.05129C54.5983 6.88809 53.104 8.1196 51.8785 9.69846C50.748 11.151 49.5541 13.1956 48.2101 15.935L48.1864 15.9744L48.1705 16.0139C47.965 16.4876 47.6804 17.0875 47.3167 17.798L47.3009 17.8296L47.2851 17.8612C46.5814 19.3927 45.6959 21.1847 44.6602 23.174C43.9487 24.5398 42.7153 26.8212 40.9759 29.9789L40.4146 27.5791C39.7979 24.9029 39.3394 22.7793 39.0626 21.2794C38.8017 19.89 38.6752 18.6664 38.6752 17.6401C38.6752 17.0954 38.7069 16.4402 38.7622 15.6823L38.944 13.3062H36.5564C36.248 13.3062 35.8211 13.3377 35.1649 13.4088C33.6943 13.5272 33.3228 13.543 33.2516 13.543C32.5638 13.543 31.8917 13.5035 31.2671 13.4167H31.2118L31.1565 13.4009C30.271 13.3298 29.6227 13.2983 29.1878 13.2983C26.8476 13.2983 24.8394 13.914 23.2187 15.1376C21.5742 16.377 20.5227 18.0664 20.0878 20.1584C19.985 20.5373 19.9297 20.9636 19.9297 21.4531C19.9297 22.9767 21.0603 24.1292 22.5624 24.1292C23.0368 24.1292 23.7484 23.995 24.4599 23.3556C24.7366 23.1109 24.9817 22.8267 25.2268 22.4872C25.4087 22.2583 25.6775 21.9662 25.97 21.8399C26.2072 21.7452 26.6499 21.6268 27.4247 21.6268C27.6303 21.6268 27.8359 21.6268 28.0335 21.6504L24.2306 39.9258C23.9935 40.952 23.7958 41.7099 23.6456 42.1756C23.5112 42.5861 23.4084 42.7282 23.4084 42.7282C23.3214 42.8388 23.0922 43.115 22.5545 43.6519C21.9062 44.2203 21.4319 44.765 21.084 45.3176C20.6254 46.0517 20.3962 46.857 20.3962 47.7174C20.3962 49.091 21.25 50.4883 22.8866 50.4883C23.3847 50.4883 23.8195 50.3462 24.7841 49.9357C25.1161 49.8015 25.4798 49.7305 25.9147 49.7305C26.0333 49.7305 26.3732 49.7542 27.0532 49.9752C27.9307 50.3147 28.6976 50.4804 29.4171 50.4804C30.5002 50.4804 31.4964 50.1726 32.374 49.5726C33.1014 49.0752 33.8367 48.2937 34.6984 47.1254C34.6984 47.1254 34.7301 47.1964 34.7459 47.228C35.1412 48.1595 36.0029 48.7279 36.9912 48.7279C38.2799 48.7279 39.3235 47.7964 40.5964 46.2886C41.6005 45.0965 42.4939 43.8571 43.245 42.594L43.3399 42.4361L43.4031 42.2625C43.9803 40.7704 44.6997 39.1442 45.5299 37.3996C45.4034 38.71 45.2611 40.2021 45.1109 41.8756L45.0318 42.673C44.9844 42.7124 44.9211 42.7598 44.85 42.8151H44.8341L44.8183 42.8388L43.9645 43.5019C42.3911 44.7255 41.6005 46.1386 41.6005 47.6937C41.6005 49.5094 42.8734 50.4646 44.1384 50.4646C44.6286 50.4646 45.0951 50.3304 46.0754 49.9041C46.3838 49.7699 46.7079 49.7068 47.0716 49.7068C47.3957 49.7068 47.7199 49.7463 48.052 49.8331C48.6133 49.9752 48.7793 50.0226 48.811 50.0305H48.8426L48.89 50.0541C49.8783 50.3304 50.6768 50.4646 51.333 50.4646C53.2226 50.4646 55.0331 49.3752 56.7171 47.2201C57.6105 46.2175 57.8003 45.2307 57.8003 44.5755C57.8003 44.3229 57.8003 43.5571 57.2864 42.8782C56.8199 42.2546 56.0846 41.8993 55.2624 41.8993C54.9936 41.8993 54.7327 41.9388 54.3927 42.0335C54.4085 41.8756 54.4243 41.7178 54.4401 41.5599C54.8196 38.5127 55.215 34.6524 55.6182 30.0816C55.7763 28.3211 55.9423 26.5844 56.1083 24.9187C56.2744 23.3082 56.472 21.8241 56.6855 20.5137V20.49V20.4663C57.065 17.7428 57.5394 15.706 58.0928 14.4114C58.5039 13.4404 59.0415 12.8088 59.7294 12.4773C60.1642 12.2878 60.607 12.1536 61.0576 12.0904C61.6269 12.0115 62.3938 11.9562 63.3346 11.9247C64.7103 11.9168 66.0069 11.4352 67.1849 10.4958C68.8452 9.16954 69.1931 7.77225 69.1931 6.84072C69.1931 5.52237 68.2839 4.11719 66.6078 4.11719L66.6157 4.15666ZM32.6428 41.9862L33.4018 38.2364C33.6706 39.5231 33.8525 40.5336 33.9473 41.252C33.979 41.4967 34.0185 41.7888 34.058 42.1046C33.7734 41.9941 33.4572 41.9388 33.133 41.9388C32.9749 41.9388 32.8168 41.9546 32.6428 41.9862Z" fill="#402C0F"/>
<path d="M61.5109 47.7714C61.0049 47.1083 60.7519 46.0583 60.7519 44.6058C60.7519 43.69 60.8784 42.4822 61.1314 40.9665L63.0684 29.9145H59.2339C58.886 29.9145 58.6409 29.875 58.4986 29.7961C58.3563 29.7171 58.2852 29.5987 58.2852 29.4408C58.2852 29.1566 58.4907 28.7619 58.9018 28.2567C59.313 27.7514 59.7794 27.2936 60.3012 26.8831C60.823 26.4725 61.2579 26.2673 61.6058 26.2673H63.78L64.1594 23.8122C64.3808 22.6438 65.037 21.6097 66.1202 20.6939C67.2112 19.7782 68.2707 19.3203 69.3143 19.3203C69.5673 19.3203 69.7728 19.3677 69.931 19.4624C70.0891 19.5571 70.1681 19.6992 70.1681 19.8887C70.1681 20.015 70.01 20.3545 69.6938 20.9071C69.3775 21.4597 69.1403 22.2254 68.9822 23.1964L68.4604 26.2673H72.4846C72.8641 26.2673 73.1171 26.291 73.2436 26.3384C73.3701 26.3857 73.4334 26.4883 73.4334 26.6462C73.4334 26.962 73.212 27.3804 72.7693 27.9014C72.3265 28.4224 71.8205 28.8882 71.2592 29.2987C70.6899 29.7092 70.263 29.9145 69.9784 29.9145H67.8516L65.962 41.156C65.7407 42.2612 65.63 43.1058 65.63 43.7058C65.63 44.1479 65.7012 44.4558 65.8435 44.6294C65.9858 44.8031 66.1992 44.89 66.4839 44.89C67.5275 44.89 68.4999 44.0374 69.417 42.3401C69.5119 42.1191 69.6068 41.9533 69.7017 41.8428C69.7965 41.7322 69.9072 41.677 70.0337 41.677C70.35 41.677 70.5081 41.9454 70.5081 42.4822C70.5081 43.3032 70.1919 44.2032 69.5594 45.1978C68.9269 46.1925 68.0967 47.0293 67.0768 47.724C66.049 48.4187 64.9738 48.7661 63.8353 48.7661C62.7917 48.7661 62.0248 48.4345 61.5188 47.7714H61.5109Z" fill="#8C683E"/>
<path d="M69.3169 19.3588C69.5699 19.3588 69.7754 19.4061 69.9335 19.5009C70.0917 19.5956 70.1707 19.7377 70.1707 19.9272C70.1707 20.0535 70.0126 20.3929 69.6964 20.9455C69.3801 21.4981 69.1429 22.2639 68.9848 23.2349L68.463 26.3057H72.4872C72.8667 26.3057 73.1197 26.3294 73.2462 26.3768C73.3727 26.4242 73.436 26.5268 73.436 26.6847C73.436 27.0004 73.2146 27.4188 72.7719 27.9399C72.3291 28.4609 71.8231 28.9267 71.2618 29.3372C70.6925 29.7477 70.2656 29.9529 69.981 29.9529H67.8542L65.9646 41.1944C65.7433 42.2996 65.6326 43.1443 65.6326 43.7443C65.6326 44.1863 65.7038 44.4942 65.8461 44.6679C65.9884 44.8416 66.2018 44.9284 66.4865 44.9284C67.5301 44.9284 68.5025 44.0758 69.4196 42.3785C69.5145 42.1575 69.6094 41.9917 69.7043 41.8812C69.7991 41.7707 69.9098 41.7154 70.0363 41.7154C70.3526 41.7154 70.5107 41.9838 70.5107 42.5206C70.5107 43.3416 70.1945 44.2416 69.562 45.2363C68.9295 46.231 68.0993 47.0678 67.0794 47.7625C66.0516 48.4572 64.9764 48.8045 63.8379 48.8045C62.7943 48.8045 62.0274 48.4729 61.5214 47.8098C61.0154 47.1467 60.7624 46.0968 60.7624 44.6442C60.7624 43.7285 60.8889 42.5206 61.1419 41.0049L63.0789 29.9529H59.2444C58.8965 29.9529 58.6514 29.9134 58.5091 29.8345C58.3668 29.7556 58.2957 29.6371 58.2957 29.4793C58.2957 29.1951 58.5012 28.8003 58.9123 28.2951C59.3235 27.7899 59.7899 27.332 60.3117 26.9215C60.8335 26.511 61.2684 26.3057 61.6163 26.3057H63.7905L64.17 23.8506C64.3913 22.6823 65.0475 21.6481 66.1307 20.7324C67.2217 19.8166 68.2812 19.3588 69.3248 19.3588M69.3169 17.1562C67.7435 17.1562 66.1939 17.7878 64.7076 19.043C63.2212 20.2903 62.312 21.7665 61.9958 23.4401V23.4796L61.9799 23.5191L61.893 24.1032H61.6084C60.7466 24.1032 59.869 24.4585 58.944 25.1926C58.2957 25.7058 57.7106 26.2742 57.1967 26.9057C56.7223 27.4899 56.0898 28.3898 56.0898 29.4793C56.0898 30.4424 56.5958 31.2949 57.4418 31.7607C57.9162 32.0291 58.4933 32.1554 59.2444 32.1554H60.4461L58.9598 40.626V40.6418C58.6831 42.2838 58.5487 43.5943 58.5487 44.6442C58.5487 46.6099 58.944 48.0782 59.7583 49.144C60.4066 49.9887 61.64 51.007 63.83 51.007C65.4112 51.007 66.9134 50.5334 68.3049 49.586C69.5778 48.7256 70.6214 47.6598 71.412 46.4125C72.2659 45.0626 72.7007 43.7522 72.7007 42.5127C72.7007 40.4444 71.3092 39.505 70.0205 39.505C69.4117 39.505 68.8425 39.7103 68.376 40.0892L69.7122 32.1554H69.9731C70.7637 32.1554 71.5543 31.8397 72.5426 31.1213C73.2462 30.616 73.8866 30.024 74.448 29.3687C74.9619 28.7688 75.6339 27.8372 75.6339 26.6926C75.6339 25.6268 75.0014 24.6953 74.021 24.3243C73.6099 24.1743 73.1672 24.1111 72.4872 24.1111H71.0799L71.1669 23.6138V23.598C71.3171 22.6665 71.5148 22.2323 71.6097 22.0507C72.1156 21.1666 72.3766 20.5982 72.3766 19.9429C72.3766 18.9877 71.8864 18.1194 71.072 17.6299C70.566 17.3299 69.9731 17.172 69.3169 17.172V17.1562Z" fill="#402C0F"/>
<path d="M77.1632 47.7714C76.6572 47.1083 76.4042 46.0583 76.4042 44.6058C76.4042 43.69 76.5307 42.4822 76.7837 40.9665L78.7207 29.9145H74.8863C74.5384 29.9145 74.2933 29.875 74.151 29.7961C74.0087 29.7171 73.9375 29.5987 73.9375 29.4408C73.9375 29.1566 74.1431 28.7619 74.5542 28.2567C74.9653 27.7514 75.4318 27.2936 75.9536 26.8831C76.4754 26.4725 76.9102 26.2673 77.2581 26.2673H79.4323L79.8118 23.8122C80.0332 22.6438 80.6894 21.6097 81.7725 20.6939C82.8636 19.7782 83.923 19.3203 84.9666 19.3203C85.2196 19.3203 85.4252 19.3677 85.5833 19.4624C85.7414 19.5571 85.8205 19.6992 85.8205 19.8887C85.8205 20.015 85.6624 20.3545 85.3461 20.9071C85.0299 21.4597 84.7927 22.2254 84.6346 23.1964L84.1128 26.2673H88.137C88.5165 26.2673 88.7695 26.291 88.896 26.3384C89.0225 26.3857 89.0857 26.4883 89.0857 26.6462C89.0857 26.962 88.8644 27.3804 88.4216 27.9014C87.9789 28.4224 87.4729 28.8882 86.9115 29.2987C86.3423 29.7092 85.9154 29.9145 85.6307 29.9145H83.504L81.6144 41.156C81.393 42.2612 81.2823 43.1058 81.2823 43.7058C81.2823 44.1479 81.3535 44.4558 81.4958 44.6294C81.6381 44.8031 81.8516 44.89 82.1362 44.89C83.1798 44.89 84.1523 44.0374 85.0694 42.3401C85.1643 42.1191 85.2591 41.9533 85.354 41.8428C85.4489 41.7322 85.5596 41.677 85.6861 41.677C86.0023 41.677 86.1605 41.9454 86.1605 42.4822C86.1605 43.3032 85.8442 44.2032 85.2117 45.1978C84.5792 46.1925 83.7491 47.0293 82.7292 47.724C81.7014 48.4187 80.6261 48.7661 79.4876 48.7661C78.444 48.7661 77.6771 48.4345 77.1711 47.7714H77.1632Z" fill="#8C683E"/>
<path d="M84.977 19.3588C85.23 19.3588 85.4356 19.4061 85.5937 19.5009C85.7518 19.5956 85.8309 19.7377 85.8309 19.9272C85.8309 20.0535 85.6728 20.3929 85.3565 20.9455C85.0403 21.4981 84.8031 22.2639 84.645 23.2349L84.1232 26.3057H88.1474C88.5269 26.3057 88.7799 26.3294 88.9064 26.3768C89.0329 26.4242 89.0961 26.5268 89.0961 26.6847C89.0961 27.0004 88.8748 27.4188 88.432 27.9399C87.9893 28.4609 87.4833 28.9267 86.9219 29.3372C86.3527 29.7477 85.9258 29.9529 85.6411 29.9529H83.5144L81.6248 41.1944C81.4034 42.2996 81.2927 43.1443 81.2927 43.7443C81.2927 44.1863 81.3639 44.4942 81.5062 44.6679C81.6485 44.8416 81.862 44.9284 82.1466 44.9284C83.1902 44.9284 84.1627 44.0758 85.0798 42.3785C85.1747 42.1575 85.2696 41.9917 85.3644 41.8812C85.4593 41.7707 85.57 41.7154 85.6965 41.7154C86.0127 41.7154 86.1709 41.9838 86.1709 42.5206C86.1709 43.3416 85.8546 44.2416 85.2221 45.2363C84.5896 46.231 83.7595 47.0678 82.7396 47.7625C81.7118 48.4572 80.6365 48.8045 79.498 48.8045C78.4544 48.8045 77.6875 48.4729 77.1815 47.8098C76.6755 47.1467 76.4225 46.0968 76.4225 44.6442C76.4225 43.7285 76.549 42.5206 76.802 41.0049L78.7391 29.9529H74.9046C74.5567 29.9529 74.3116 29.9134 74.1693 29.8345C74.027 29.7556 73.9558 29.6371 73.9558 29.4793C73.9558 29.1951 74.1614 28.8003 74.5725 28.2951C74.9836 27.7899 75.4501 27.332 75.9719 26.9215C76.4937 26.511 76.9285 26.3057 77.2764 26.3057H79.4506L79.8301 23.8506C80.0515 22.6823 80.7077 21.6481 81.7908 20.7324C82.8819 19.8166 83.9413 19.3588 84.9849 19.3588M84.977 17.1562C83.4037 17.1562 81.8541 17.7878 80.3677 19.043C78.8814 20.2903 77.9722 21.7665 77.6559 23.4401V23.4796L77.6401 23.5191L77.5531 24.1032H77.2685C76.4067 24.1032 75.5292 24.4585 74.6041 25.1926C73.9558 25.7058 73.3708 26.2742 72.8569 26.9057C72.3825 27.4899 71.75 28.3898 71.75 29.4793C71.75 30.4424 72.256 31.2949 73.1019 31.7607C73.5763 32.0291 74.1535 32.1554 74.9046 32.1554H76.1063L74.6199 40.626V40.6418C74.3432 42.2838 74.2088 43.5943 74.2088 44.6442C74.2088 46.6099 74.6041 48.0782 75.4185 49.144C76.0668 49.9887 77.3001 51.007 79.4901 51.007C81.0714 51.007 82.5735 50.5334 83.965 49.586C85.2379 48.7256 86.2815 47.6598 87.0722 46.4125C87.926 45.0626 88.3609 43.7522 88.3609 42.5127C88.3609 40.4444 86.9694 39.505 85.6807 39.505C85.0719 39.505 84.5027 39.7103 84.0362 40.0892L85.3723 32.1554H85.6332C86.4239 32.1554 87.2145 31.8397 88.2027 31.1213C88.9064 30.616 89.5468 30.024 90.1081 29.3687C90.622 28.7688 91.2941 27.8372 91.2941 26.6926C91.2941 25.6268 90.6616 24.6953 89.6812 24.3243C89.2701 24.1743 88.8273 24.1111 88.1474 24.1111H86.7401L86.8271 23.6138V23.598C86.9773 22.6665 87.1749 22.2323 87.2777 22.0507C87.7837 21.1666 88.0446 20.5982 88.0446 19.9429C88.0446 18.9877 87.5544 18.1194 86.7401 17.6299C86.2341 17.3299 85.6411 17.172 84.9849 17.172L84.977 17.1562Z" fill="#402C0F"/>
</svg>
